<?xml version="1.0" encoding="utf-8"?>
<svg viewBox="30.243 0 30.217 60.089" xmlns="http://www.w3.org/2000/svg">
  <defs>
    <clipPath id="clip-path" transform="translate(30.3 0)">
      <rect class="cls-1" width="30.36" height="60.64"/>
    </clipPath>
    <style>.cls-1{fill:none;}.cls-2{clip-path:url(#clip-path);}.cls-3{fill:#e5d7ba;}.cls-4{fill:#bab4ae;}.cls-5{fill:#260029;}</style>
  </defs>
  <g id="Capa_2" data-name="Capa 2">
    <g id="Capa_1-2" data-name="Capa 1">
      <g class="cls-2">
        <g id="Capa_2-2" data-name="Capa 2">
          <g id="_" data-name=" ">
            <path class="cls-3" d="M-25.69,43.81c-1.06-1.05-1.89-1.22-2.84-2.18-1.48-1.5-1.06-2.41-.87-4.15.36-3.4-.71-7.36-.22-10.91.39-2.81.83-6.77,2.84-8.94,1.23-1.33,1.66-1.41,2.48-3.23a18.12,18.12,0,0,1,2.7-4.25c1.63-1.91,4.2-3.21,6-6.26,2.39-1.38,5.4-1.1,9.3-2.19C-4.44,1.53-2,1.45-.19,1.26a19.27,19.27,0,0,1,4.8.22A23.44,23.44,0,0,1,13.1,4.37a39.21,39.21,0,0,1,7.68,5.4c2.39,2.23,1.55,3.71,3.27,6.33,2.19.22,5.68,14,5,19.59C26.77,42,23.64,47.82,18.59,52.48a34.17,34.17,0,0,1-8.29,5.68C7.18,59.61,3.74,59,.3,59.3c-3.27.3-4,1.46-7.2-.44-2.39-1.42-5.62-2.57-7.84-4.19a52.72,52.72,0,0,1-6.76-5.25c-1.71-1.7-3-4.85-4.85-6.05Z" transform="translate(30.3 0)"/>
            <path class="cls-4" d="M-19.73,15.85c-1.48-2.2,4-10.06,5.92-7.14,1.07,1.65-1.62,3.29-2.49,4.58-.65,1-3.19,5.07-3.92,1.94Z" transform="translate(30.3 0)"/>
            <path class="cls-4" d="M-5.3,14.63a18.59,18.59,0,0,1,.66-3.48c.17-1-.38-2.38.37-3.34,1.86-2.4,4.34,0,5.45,1.64,1.49,2.15,2.31,4,.23,6-1.34,1.33-5.62,2.85-6.49.23Z" transform="translate(30.3 0)"/>
            <path class="cls-4" d="M14.36,12.64A19.68,19.68,0,0,1,11.47,11,13.63,13.63,0,0,0,8.3,9.8C6.85,9.19,3,6,5.8,5c2.55-1,13.33,5.74,7.9,8.12Z" transform="translate(30.3 0)"/>
            <path class="cls-4" d="M9.37,34C5.84,32.76,7,21.72,12.43,24c4.39,1.81,2.38,10.87-2.62,10.26Z" transform="translate(30.3 0)"/>
            <path class="cls-4" d="M22,32.49c-3.34,0-2.34-9,1.75-7C26.9,27,24.92,33.71,22,33.19Z" transform="translate(30.3 0)"/>
            <path class="cls-4" d="M-9.55,35.3c1.33-1.37.52-6.31-.21-7.85A3.32,3.32,0,0,0-14,25.53a3.35,3.35,0,0,0-1.83,1.7c-3.15,5.38,1.46,11.16,7,8.29Z" transform="translate(30.3 0)"/>
            <path class="cls-4" d="M-25,39.45c5.33,4.55,3.74-5.59.22-6.45-2,1-.81,5.31.44,6.45Z" transform="translate(30.3 0)"/>
            <path class="cls-4" d="M-1.45,45.12c-1.08-.51-3.33-2.53-2.79-3.7s4.48-.78,5.63-.68c2.11.19,3.71,1.73,1.75,3.73-1.33,1.36-3.56.47-5,1.52Z" transform="translate(30.3 0)"/>
            <path class="cls-4" d="M1.24,53.78c-3.81-.93,1.05-2.27,2.23-2.57,1.36-.34,4.67-2.25,5.8-.48,2,3.19-7.7,4-9.34,3.27Z" transform="translate(30.3 0)"/>
            <path class="cls-4" d="M17.7,46c-2.68,1.67-2-4,.91-3.61,1.75.27,1.4,1.52.67,2.64-.91,1.39-2.07,1.17-3.33,2Z" transform="translate(30.3 0)"/>
            <path class="cls-4" d="M-12.82,50.79c-.37-1.48-4.64-5.23-5.68-3.72-1.71,2.47,4,5,5.26,5.22A.93.93,0,0,0-13,51a.8.8,0,0,0-.21-.2Z" transform="translate(30.3 0)"/>
            <path class="cls-5" d="M23.17,16.87a6.27,6.27,0,0,0,.29,1.05.19.19,0,0,0,.25,0,.16.16,0,0,0,.08-.16,4.84,4.84,0,0,0-.23-1C23.49,16.56,23.1,16.62,23.17,16.87Z" transform="translate(30.3 0)"/>
            <path class="cls-5" d="M23.93,16.18a2.45,2.45,0,0,0,.59,1.94c.16.14.34-.07.28-.23s-.25-.58-.36-.87a6.14,6.14,0,0,1-.12-.86C24.3,15.94,23.94,16,23.93,16.18Z" transform="translate(30.3 0)"/>
            <path class="cls-5" d="M24.92,16.81a1.88,1.88,0,0,0,.32,1,.21.21,0,0,0,.29,0,.18.18,0,0,0,0-.16c-.09-.29-.17-.59-.24-.89S24.91,16.57,24.92,16.81Z" transform="translate(30.3 0)"/>
            <path class="cls-5" d="M-29.76,28.61A62.18,62.18,0,0,1-26.65,17a.26.26,0,0,0-.17-.33.27.27,0,0,0-.28.09,19,19,0,0,0-3,11.84C-30.12,28.85-29.79,28.81-29.76,28.61Z" transform="translate(30.3 0)"/>
            <path class="cls-5" d="M-27,17.29c2.25-.14,2.25-2.8,2.64-4.39,0-.2-.13-.41-.33-.31-.73.35-.82,1.18-.92,1.9a2.32,2.32,0,0,1-.73,1.58,5.76,5.76,0,0,0-.93.85.24.24,0,0,0,.06.33A.23.23,0,0,0-27,17.29Z" transform="translate(30.3 0)"/>
            <path class="cls-5" d="M-24.63,13.43c.9-1.06,1.78-2.14,2.72-3.16a11.79,11.79,0,0,0,2.12-2.45c.11-.21-.16-.39-.34-.31a8.19,8.19,0,0,0-2.55,2.32A21.65,21.65,0,0,0-25,13.14a.27.27,0,0,0,.14.34A.26.26,0,0,0-24.63,13.43Z" transform="translate(30.3 0)"/>
            <path class="cls-5" d="M-13.36,2.35c2.51.49,5-.75,7.47-1.15,3.59-.59,7-.2,10.59,0,.32,0,.46-.47.13-.57-6.33-1.8-12,.52-18.24,1.16C-13.69,1.86-13.63,2.3-13.36,2.35Z" transform="translate(30.3 0)"/>
            <path class="cls-5" d="M11.58,3.58c2.19,1.73,4.69,3,6.92,4.67a23.32,23.32,0,0,1,5,5.49.25.25,0,0,0,.33,0,.21.21,0,0,0,.07-.21c-1.25-5.19-7.74-8.18-12-10.41a.27.27,0,0,0-.38.06.28.28,0,0,0,.06.38Z" transform="translate(30.3 0)"/>
            <path class="cls-5" d="M23.45,13.07c-.65,1.93,1.25,3.32,2.42,4.38a.31.31,0,0,0,.41-.06.3.3,0,0,0,0-.15c0-.86-.7-1.12-1.23-1.67a6.52,6.52,0,0,1-1.16-2.52.27.27,0,0,0-.36-.12A.29.29,0,0,0,23.45,13.07Z" transform="translate(30.3 0)"/>
            <path class="cls-5" d="M25.52,16.82a28.65,28.65,0,0,1,2.26,7.23,48.41,48.41,0,0,0,.73,6,.35.35,0,0,0,.68,0c.36-4.35-.65-9.9-3.12-13.54C25.85,16.14,25.38,16.49,25.52,16.82Z" transform="translate(30.3 0)"/>
            <path class="cls-5" d="M28.37,29.84a7.7,7.7,0,0,1,.83,2.93c0,.94-.28,1.83-.32,2.76,0,.29.41.51.58.21a5.64,5.64,0,0,0-.53-6.26.34.34,0,0,0-.48,0A.38.38,0,0,0,28.37,29.84Z" transform="translate(30.3 0)"/>
            <path class="cls-5" d="M28.12,37.31a6,6,0,0,0,1.41-1.76c.17-.36-.34-.68-.61-.43A5.84,5.84,0,0,0,27.63,37C27.49,37.25,27.89,37.5,28.12,37.31Z" transform="translate(30.3 0)"/>
            <path class="cls-5" d="M27.91,36.29c-1.43,3.07-2.31,6.34-4.06,9.27a24.46,24.46,0,0,1-5.46,6.15.27.27,0,0,0,.29.44c5.42-2.91,8.41-10,9.72-15.68a.26.26,0,0,0-.15-.34A.26.26,0,0,0,27.91,36.29Z" transform="translate(30.3 0)"/>
            <path class="cls-5" d="M-2.46,59.7c7.51,1.35,17.12-2,21.79-8.13.21-.29-.18-.61-.44-.41C12,56.47,6.37,58.93-2.42,59.24a.24.24,0,0,0-.25.21A.23.23,0,0,0-2.46,59.7Z" transform="translate(30.3 0)"/>
            <path class="cls-5" d="M-29.91,27.52c-1.12,3.69.61,7.41-.29,11.08-.08.34.38.68.6.32A7,7,0,0,0-29,34.5c-.26-2.33-.33-4.6-.45-6.94a.22.22,0,0,0-.25-.18A.24.24,0,0,0-29.91,27.52Z" transform="translate(30.3 0)"/>
            <path class="cls-5" d="M-30.09,38.52a2.89,2.89,0,0,0,.13,1.9c.17.54.43,1.37,1,1.56a.32.32,0,0,0,.4-.19.17.17,0,0,0,0-.07c0-.53-.41-1-.6-1.47s-.15-1.2-.39-1.76a.3.3,0,0,0-.4-.14A.35.35,0,0,0-30.09,38.52Z" transform="translate(30.3 0)"/>
            <path class="cls-5" d="M-29.18,41.64a20.6,20.6,0,0,0,1.88,1.74,18.07,18.07,0,0,1,1.79,2.73,14.37,14.37,0,0,0,3.94,4.17.22.22,0,0,0,.28-.12.18.18,0,0,0,0-.16,44.28,44.28,0,0,1-4.2-5.7,6.07,6.07,0,0,0-3.43-3,.22.22,0,0,0-.28.13A.26.26,0,0,0-29.18,41.64Z" transform="translate(30.3 0)"/>
            <path class="cls-5" d="M-18.54,53.4A14.72,14.72,0,0,0-13.45,57c2.4,1.15,5.31,1.36,7.54,2.79a.42.42,0,0,0,.56-.18.41.41,0,0,0-.09-.48c-1.71-1.3-3.86-1.47-5.86-2.2-2.55-1-4.59-2.57-6.94-3.86C-18.45,53-18.72,53.19-18.54,53.4Z" transform="translate(30.3 0)"/>
            <path class="cls-5" d="M-6.08,59.31A2.15,2.15,0,0,0-4.3,60.62a2.67,2.67,0,0,0,1.09-.1c.59-.2,1-.75,1.7-.67a.26.26,0,0,0,.27-.25.14.14,0,0,0,0-.11c-.36-.65-1-.51-1.55-.18a2.25,2.25,0,0,1-3-.28C-5.94,58.87-6.14,59.12-6.08,59.31Z" transform="translate(30.3 0)"/>
            <path class="cls-5" d="M4.51.93c1.44,1,3.29.33,4.84,1.14,1.27.66,2.17,2.06,3.65,2.25a.22.22,0,0,0,.22-.23.16.16,0,0,0,0-.09A14.49,14.49,0,0,0,9.7,1.27C8.16.47,6.32.74,4.7.52a.22.22,0,0,0-.27.17A.22.22,0,0,0,4.51.93Z" transform="translate(30.3 0)"/>
            <path class="cls-5" d="M-16.48,4.73A5.73,5.73,0,0,1-14.71,3a9.54,9.54,0,0,1,2.2-.64c.29-.08.41-.54.06-.64-1.76-.49-4,1.1-4.44,2.76a.25.25,0,0,0,.08.33A.24.24,0,0,0-16.48,4.73Z" transform="translate(30.3 0)"/>
            <path class="cls-5" d="M-20.64,8.31a9.1,9.1,0,0,0,2.92-2.22A8.87,8.87,0,0,0-15.57,3.4c.11-.27-.24-.46-.45-.31A27.81,27.81,0,0,0-18.5,5.7a22.76,22.76,0,0,0-2.36,2.35C-21,8.2-20.8,8.37-20.64,8.31Z" transform="translate(30.3 0)"/>
            <path class="cls-5" d="M-21.44,10.25c.88-.69,1.73-1.44,2.58-2.17A17,17,0,0,0-16.62,6c.11-.13-.07-.34-.22-.25a17.25,17.25,0,0,0-2.33,1.94c-.84.75-1.7,1.48-2.5,2.27a.19.19,0,0,0,0,.26A.19.19,0,0,0-21.44,10.25Z" transform="translate(30.3 0)"/>
            <path class="cls-5" d="M-15.9,4.89c.08-.21.26-.3.43-.42a.2.2,0,0,0-.11-.36.71.71,0,0,0-.76.67h0C-16.4,5.06-16,5.12-15.9,4.89Z" transform="translate(30.3 0)"/>
            <path class="cls-5" d="M-13,3a10.37,10.37,0,0,0,4.28-.63c.18-.07.08-.35-.1-.32a28.59,28.59,0,0,1-4.14.54C-13.18,2.58-13.23,3-13,3Z" transform="translate(30.3 0)"/>
            <path class="cls-5" d="M-1.7,1.29a33.87,33.87,0,0,1,4.4.29c.18,0,.26-.27.07-.32A12.8,12.8,0,0,0-1.72.91a.19.19,0,0,0-.18.2A.2.2,0,0,0-1.7,1.29Z" transform="translate(30.3 0)"/>
            <path class="cls-5" d="M-28.56,24.63A4.81,4.81,0,0,0-28.21,23c0-.18-.26-.33-.36-.13a5.5,5.5,0,0,0-.49,1.6A.26.26,0,0,0-28.56,24.63Z" transform="translate(30.3 0)"/>
            <path class="cls-5" d="M-27.69,21.32A17.49,17.49,0,0,1-27,19.57a13.77,13.77,0,0,0,.81-1.69.2.2,0,0,0-.15-.25.21.21,0,0,0-.21.06A8.75,8.75,0,0,0-28,21.19C-28.11,21.43-27.76,21.56-27.69,21.32Z" transform="translate(30.3 0)"/>
            <path class="cls-5" d="M-25.21,17.23a3.84,3.84,0,0,0,1.33-2A.18.18,0,0,0-24,15a.19.19,0,0,0-.17.07c-.2.29-.32.63-.51.93a4.6,4.6,0,0,1-.74.92A.19.19,0,0,0-25.21,17.23Z" transform="translate(30.3 0)"/>
            <path class="cls-5" d="M-28.93,33.13a8.79,8.79,0,0,0,.25,3.78c.07.21.39.13.41-.07a12.9,12.9,0,0,0-.12-1.76,10.5,10.5,0,0,0-.13-2C-28.55,32.87-28.89,32.91-28.93,33.13Z" transform="translate(30.3 0)"/>
            <path class="cls-5" d="M17.89,51.59a15.3,15.3,0,0,0,5.91-6.73.19.19,0,0,0-.11-.25.21.21,0,0,0-.22.07,20.9,20.9,0,0,1-5.77,6.64C17.47,51.45,17.7,51.72,17.89,51.59Z" transform="translate(30.3 0)"/>
            <path class="cls-5" d="M25.07,42.46a7.66,7.66,0,0,0,.51-1.27c0-.17-.19-.33-.3-.15a12.4,12.4,0,0,0-.58,1.29C24.63,42.55,25,42.67,25.07,42.46Z" transform="translate(30.3 0)"/>
            <path class="cls-5" d="M24,43.37l-.11.14c-.18.22.15.5.36.33l.14-.11C24.7,43.49,24.28,43.05,24,43.37Z" transform="translate(30.3 0)"/>
            <path class="cls-5" d="M26,39.74A8.8,8.8,0,0,0,26.83,38a.17.17,0,0,0-.1-.23.19.19,0,0,0-.22.07,9.26,9.26,0,0,0-1,1.66.27.27,0,0,0,.11.35A.26.26,0,0,0,26,39.74Z" transform="translate(30.3 0)"/>
            <path class="cls-5" d="M-22,50c.55.78,1.51,1.13,2.15,1.83a13.32,13.32,0,0,0,2,2.3c.21.14.42-.08.35-.3a7.43,7.43,0,0,0-1.94-2.7,8,8,0,0,0-2.35-1.47C-21.95,49.56-22.08,49.83-22,50Z" transform="translate(30.3 0)"/>
            <path class="cls-5" d="M-22.48,48.37a2.4,2.4,0,0,0,.95,1.26c.13.07.34,0,.3-.19a2.25,2.25,0,0,0-1-1.23C-22.3,48.15-22.52,48.22-22.48,48.37Z" transform="translate(30.3 0)"/>
            <path class="cls-5" d="M-23.61,47a1.49,1.49,0,0,0,.44.39c.16.09.39,0,.29-.24a1.64,1.64,0,0,0-.42-.53C-23.51,46.45-23.78,46.76-23.61,47Z" transform="translate(30.3 0)"/>
            <path class="cls-5" d="M-20.15,50.15a1.22,1.22,0,0,0,.5.24.2.2,0,0,0,.22-.17.19.19,0,0,0-.05-.14,1.16,1.16,0,0,0-.46-.32C-20.18,49.64-20.3,50-20.15,50.15Z" transform="translate(30.3 0)"/>
            <path class="cls-5" d="M-17.43,53.56c.53.26,1,.66,1.5.91.2.1.32-.17.22-.31a3.12,3.12,0,0,0-1.58-1,.21.21,0,0,0-.27.13.22.22,0,0,0,.13.27Z" transform="translate(30.3 0)"/>
            <path class="cls-5" d="M-15.49,54.78a2.52,2.52,0,0,0,.69.48c.24.12.43-.26.22-.41a2.24,2.24,0,0,0-.7-.37C-15.45,54.44-15.63,54.63-15.49,54.78Z" transform="translate(30.3 0)"/>
            <path class="cls-5" d="M-1.58,59h2c.26,0,.24-.45,0-.46h-1.9C-1.79,58.64-1.84,59-1.58,59Z" transform="translate(30.3 0)"/>
            <path class="cls-5" d="M1.39,58.91h.12a.17.17,0,0,0,0-.33H1.39C1.06,58.42,1.09,59,1.39,58.91Z" transform="translate(30.3 0)"/>
            <path class="cls-5" d="M2.7,58.82a4.89,4.89,0,0,0,1.43-.33.2.2,0,0,0-.07-.39,5.07,5.07,0,0,0-1.43.3.21.21,0,0,0,.07.42Z" transform="translate(30.3 0)"/>
            <path class="cls-5" d="M-16.23,27.72c-1.39,2.41-1.39,5.67,1,7.49,1.89,1.46,6,1.89,6.26-1.38a.21.21,0,0,0-.16-.25.22.22,0,0,0-.25.16c-1.15,3.07-5.16,2.08-6.5-.28A5.78,5.78,0,0,1-15.71,28C-15.55,27.7-16.06,27.43-16.23,27.72Z" transform="translate(30.3 0)"/>
            <path class="cls-5" d="M-9,33.54c.56-1.44-.18-2.88,0-4.37a3.32,3.32,0,0,0-.5-2.94,3.8,3.8,0,0,0-5.37-.5,2.82,2.82,0,0,0-.36.33.22.22,0,0,0,0,.32.22.22,0,0,0,.26.06c.91-.34,1.58-.93,2.63-.82a2.72,2.72,0,0,1,2.72,2.73,2.37,2.37,0,0,1-.09.65c-.26,1.54.53,3,.23,4.48C-9.57,33.72-9.13,33.8-9,33.54Z" transform="translate(30.3 0)"/>
            <path class="cls-5" d="M-19.45,13.38c.68-1,1.23-2,1.9-3s2.14-2.68,3.48-2c1.91,1-.88,3-1.61,3.55a4.37,4.37,0,0,0-1.47,1.85A.22.22,0,0,0-17,14a.21.21,0,0,0,.24-.11c.68-1.63,2.56-2.09,3.37-3.61.42-.79.55-2.21-.46-2.59-3-1.11-5,3.39-6,5.36A.24.24,0,0,0-19.45,13.38Z" transform="translate(30.3 0)"/>
            <path class="cls-5" d="M-17.91,15c-.41.55-1.12,1.39-1.88.9s.33-1.09-.17-1.61a.24.24,0,0,0-.35,0l0,0c-.53.77-.64,1.88.38,2.26s1.81-.6,2.35-1.36A.18.18,0,1,0-17.91,15Z" transform="translate(30.3 0)"/>
            <path class="cls-5" d="M8,5.62c1.39.71,2.81,1.34,4.23,2s5.45,3.13,2.31,4.76c-.19.1-.11.43.12.37,1.68-.42,2-2.32,1-3.64a5.76,5.76,0,0,0-2.5-1.82c-1.65-.77-3.34-1.49-5-2.14C7.83,5,7.7,5.47,8,5.62Z" transform="translate(30.3 0)"/>
            <path class="cls-5" d="M14.27,12.29c-1-.15-1.32-1.2-2-1.74A3,3,0,0,0,11,10c-.72-.16-1.47-.1-2.18-.28C7.12,9.3,7,8.24,6.39,6.94a.22.22,0,0,0-.28-.14A.25.25,0,0,0,6,7.07a3.37,3.37,0,0,0,2.91,3.32c1.52.24,2.57.19,3.74,1.37a2.65,2.65,0,0,0,1.61,1A.24.24,0,0,0,14.27,12.29Z" transform="translate(30.3 0)"/>
            <path class="cls-5" d="M21.88,26.67c.39-1.16,1.2-1.42,2.44-.76A3.5,3.5,0,0,1,25,27.37a4.87,4.87,0,0,1,.08,1.94c-.23,1.52-1.54,4.06-3.47,3.1-.3-.15-.49.3-.26.49,2.56,2.11,4.59-2.85,4.44-4.7C25.7,27,25.2,25.36,24,24.91s-2.14.56-2.61,1.57C21.22,26.8,21.7,27,21.88,26.67Z" transform="translate(30.3 0)"/>
            <path class="cls-5" d="M21.2,30.59a3.88,3.88,0,0,1,0-1.36c.08-.38.29-.73.34-1.1a.21.21,0,0,0-.2-.22.22.22,0,0,0-.13,0,3.12,3.12,0,0,0-.48,2.71.24.24,0,0,0,.27.2.24.24,0,0,0,.2-.27Z" transform="translate(30.3 0)"/>
            <path class="cls-5" d="M.09,54.57c1.88-.08,3.3.9,5.2.47a9,9,0,0,0,3.87-1.69c1.09-1,1.25-2.66-.21-3.32-.24-.1-.36.26-.14.37,2.15,1.06-.68,2.89-1.71,3.31a9.41,9.41,0,0,1-2.61.8c-1.6.14-2.95-.85-4.49-.41a.23.23,0,0,0-.16.29A.24.24,0,0,0,.09,54.57Z" transform="translate(30.3 0)"/>
            <path class="cls-5" d="M7.56,49.76a25.91,25.91,0,0,1-4.37,1.67,11.43,11.43,0,0,0-2.58.89c-.93.55-1.68,1.74-.28,2.23.28.1.52-.32.25-.47-1.43-.78,1.6-1.74,1.8-1.8.5-.14,1-.27,1.5-.43A24,24,0,0,0,7.7,50.1C7.93,50,7.77,49.64,7.56,49.76Z" transform="translate(30.3 0)"/>
            <path class="cls-5" d="M18.53,45.93a3.25,3.25,0,0,0,1.61-2c.16-.59.16-1.55-.54-1.83s-1.51.56-1.92,1a3.87,3.87,0,0,0-1,2.53c0,.19.29.19.36,0a11.33,11.33,0,0,1,.6-1.63,4.51,4.51,0,0,1,1.06-1.2c1-.77,1.16.47.94,1.16a2.84,2.84,0,0,1-1.3,1.59C18.12,45.68,18.29,46.06,18.53,45.93Z" transform="translate(30.3 0)"/>
            <path class="cls-5" d="M16.37,47a1.63,1.63,0,0,0,2-.79c.09-.2-.17-.34-.32-.23a2.19,2.19,0,0,1-1.55.59C16.23,46.56,16.13,46.94,16.37,47Z" transform="translate(30.3 0)"/>
            <path class="cls-5" d="M-18.83,47.68c.61,1.62,2.53,4.32,4.53,4.21a1.43,1.43,0,0,0,1.45-1.3,2.64,2.64,0,0,0-1.31-2.18c-.15-.12-.36.11-.22.25.51.55,1.22,1.26,1,2.1-.34,1.13-1.85.4-2.45-.07a11.15,11.15,0,0,1-2.6-3.19.21.21,0,0,0-.29-.11A.23.23,0,0,0-18.83,47.68Z" transform="translate(30.3 0)"/>
            <path class="cls-5" d="M-18.47,47.25c-.44-.9,1-.54,1.19-.42l.56.37a6.23,6.23,0,0,0,1.42.8.25.25,0,0,0,.31-.16.23.23,0,0,0,0-.22,6.29,6.29,0,0,0-1.58-1.17A2.22,2.22,0,0,0-18.09,46a1,1,0,0,0-.85,1.13,1.18,1.18,0,0,0,.12.36C-18.69,47.68-18.37,47.46-18.47,47.25Z" transform="translate(30.3 0)"/>
            <path class="cls-5" d="M-24.17,39.11a12.37,12.37,0,0,1-1.13-2.52,11.1,11.1,0,0,1-.3-1.39l-.06-.75c1.09-1.08,1.72-1.2,1.9-.37.26.47.32,1.07.56,1.55.36.73,2.57,3.85,0,3.93-.37,0-.44.59-.06.58a1.83,1.83,0,0,0,1.68-2,1.58,1.58,0,0,0-.12-.52c-.27-1.09-1.1-1.95-1.45-3A4,4,0,0,0-23.73,33c-.89-1-2.16-.12-2.41.94-.4,1.75.66,4,1.54,5.4C-24.44,39.57-24,39.39-24.17,39.11Z" transform="translate(30.3 0)"/>
            <path class="cls-5" d="M8.87,27.69C8.4,29.42,7,33.06,8.93,34.4s3.85-.92,4.89-2.25c1.63-2.09,2.2-4.51.8-6.91-.88-1.5-3-3.1-4.35-1.2-.18.26.18.61.42.38,1.65-1.61,2.83.26,3.38,1.22a5,5,0,0,1,.71,3.15,7.44,7.44,0,0,1-2.08,3.75,4.39,4.39,0,0,1-1.56,1.34c-2.56.87-2.58-1.19-2.48-2.38s.48-2.48.66-3.71C9.34,27.54,8.93,27.44,8.87,27.69Z" transform="translate(30.3 0)"/>
            <path class="cls-5" d="M10.12,24.87c-.67.29-1.33,1.34-.82,2a.21.21,0,0,0,.3,0,.14.14,0,0,0,.06-.12,6.28,6.28,0,0,1,0-.75,1.39,1.39,0,0,1,.6-.71.23.23,0,0,0-.18-.42Z" transform="translate(30.3 0)"/>
            <path class="cls-5" d="M-2.73,6.79A3.17,3.17,0,0,0-4.67,10c-.07,1.87.19,1.35-.4,2.56a11,11,0,0,0-.69,1.57,2.18,2.18,0,0,0,.11,1.68c1.55,3,6.52,2.49,7.83-.35.09-.18-.2-.32-.32-.16A4.22,4.22,0,0,1-3,17.09,2.22,2.22,0,0,1-4.89,15c-.31-1.54-.17-1.37.5-2.73A3,3,0,0,0-4,11c0-.53-.2-1.07-.15-1.59A3.3,3.3,0,0,1-2.5,7.14C-2.3,7-2.52,6.71-2.73,6.79Z" transform="translate(30.3 0)"/>
            <path class="cls-5" d="M2.7,14.09C3.47,12.3,1.53,10.54.83,9,.27,7.85-.87,6-2.41,6.91c-.2.11-.12.44.12.39C-.19,6.91.15,8.89.91,10.24,1.58,11.43,3,12.42,2.38,14,2.27,14.18,2.59,14.29,2.7,14.09Z" transform="translate(30.3 0)"/>
            <path class="cls-5" d="M-3.93,41.89A3.55,3.55,0,0,0-.74,45.46c1.66.17,4.35-1.23,4.93-2.87.65-1.85-1.71-2.4-3-2.23-1.13.14-4.67-1.39-4.86.87a.2.2,0,0,0,.2.2.19.19,0,0,0,.18-.11c.65-1.71,2.53-.44,3.7-.41.59,0,1.34-.38,1.87-.23L3.7,41.75a1.76,1.76,0,0,1-.77,1.54c-2.45,2.26-5.58,2-6.55-1.42a.16.16,0,0,0-.22-.07A.2.2,0,0,0-3.93,41.89Z" transform="translate(30.3 0)"/>
            <path class="cls-5" d="M-4,28.11a2.15,2.15,0,0,0,3,.66,2,2,0,0,0,.66-.66c.59-1.08-.4-3-1.76-2.59a.24.24,0,0,0,0,.46c.82.24,1.76.87,1.31,1.88-.54,1.24-2.14.88-2.85,0a.2.2,0,0,0-.29,0,.22.22,0,0,0,0,.29Z" transform="translate(30.3 0)"/>
            <path class="cls-5" d="M28.28,35.14a3.55,3.55,0,0,0,.17-2.94,20.33,20.33,0,0,1-.63-5.27c0-.19-.32-.31-.37-.08a9.21,9.21,0,0,0-.08,3.27c.21,1.6,1.12,3.19.45,4.78C27.7,35.17,28.13,35.4,28.28,35.14Z" transform="translate(30.3 0)"/>
            <path class="cls-5" d="M27.59,25.19c-.06-.51-.11-1-.2-1.51a.16.16,0,0,0-.2-.14.18.18,0,0,0-.14.2h0a11.4,11.4,0,0,0,.17,1.52C27.25,25.5,27.62,25.43,27.59,25.19Z" transform="translate(30.3 0)"/>
            <path class="cls-5" d="M-12.25,56.54a15.21,15.21,0,0,1,2.34.37c.69.18,1.33.51,2,.67a.21.21,0,0,0,.29-.09.2.2,0,0,0-.09-.28A7.28,7.28,0,0,0-12.2,56C-12.52,56.06-12.58,56.51-12.25,56.54Z" transform="translate(30.3 0)"/>
            <path class="cls-5" d="M-10.16,56A5.91,5.91,0,0,1-9,56.11a.23.23,0,0,0,.24-.21.21.21,0,0,0-.09-.18,1.54,1.54,0,0,0-1.35-.22.26.26,0,0,0-.21.29A.26.26,0,0,0-10.16,56Z" transform="translate(30.3 0)"/>
            <path class="cls-5" d="M-27.66,29.13c.07-1.32.35-2.58.47-3.89a.22.22,0,0,0-.42-.09,7.72,7.72,0,0,0-.56,4C-28.15,29.44-27.67,29.42-27.66,29.13Z" transform="translate(30.3 0)"/>
            <path class="cls-5" d="M-14.52,24.16c-2.09,1.24-4,4.53-3.49,7a.2.2,0,0,0,.39,0,17.87,17.87,0,0,1,.8-3.38,10.69,10.69,0,0,1,2.52-3.22C-14.09,24.38-14.3,24-14.52,24.16Z" transform="translate(30.3 0)"/>
            <path class="cls-5" d="M-17.11,33.85c.57,2.18,4,5,6.19,3.15.19-.17,0-.52-.25-.39-2.05,1.15-4.91-.83-5.57-2.88C-16.81,33.53-17.17,33.64-17.11,33.85Z" transform="translate(30.3 0)"/>
            <path class="cls-5" d="M-8.89,35a2.62,2.62,0,0,0,.59-2.13,17.27,17.27,0,0,0-.25-3.8.21.21,0,0,0-.26-.17.23.23,0,0,0-.17.17,12.4,12.4,0,0,0,.07,2.36c.07,1,.46,2.42-.3,3.21C-9.38,34.85-9.1,35.19-8.89,35Z" transform="translate(30.3 0)"/>
            <path class="cls-5" d="M-7.43,32.16a4.2,4.2,0,0,0,0-1.58.21.21,0,0,0-.42,0,5,5,0,0,0,0,1.64C-7.89,32.46-7.45,32.43-7.43,32.16Z" transform="translate(30.3 0)"/>
            <path class="cls-5" d="M-4.3,40.1c-1.71,3,.85,7.13,4.44,6.36.19-.05.2-.37,0-.37-3.22,0-5.36-2.71-4-5.79C-3.84,40.08-4.2,39.88-4.3,40.1Z" transform="translate(30.3 0)"/>
            <path class="cls-5" d="M2.54,45.32a4,4,0,0,0,2.1-1.78A3,3,0,0,0,5,41c-.09-.21-.38-.13-.42.08a6.44,6.44,0,0,1-.48,2.21,3.67,3.67,0,0,1-1.76,1.65C2.09,45,2.28,45.42,2.54,45.32Z" transform="translate(30.3 0)"/>
            <path class="cls-5" d="M.56,39.79A14.51,14.51,0,0,1,2.19,40a12.65,12.65,0,0,0,1.6.25c.18,0,.34-.26.14-.37a7.67,7.67,0,0,0-3.32-.55C.29,39.28.24,39.78.56,39.79Z" transform="translate(30.3 0)"/>
            <path class="cls-5" d="M8.1,33.6c-.36-1.68.16-3.1.5-4.72s-.11-3.55,1.05-5c.16-.2-.12-.4-.31-.28-1.49,1-1,3.08-1.24,4.61-.28,1.92-1.17,3.63-.46,5.55C7.7,34,8.16,33.87,8.1,33.6Z" transform="translate(30.3 0)"/>
            <path class="cls-5" d="M12.48,34.34c2.21-1.28,4.3-4.29,3.48-7a.21.21,0,0,0-.26-.17.23.23,0,0,0-.17.17A10.65,10.65,0,0,1,14.89,31a7,7,0,0,1-2.61,3C12.1,34.13,12.29,34.44,12.48,34.34Z" transform="translate(30.3 0)"/>
            <path class="cls-5" d="M15.47,25.46A7.07,7.07,0,0,0,14.15,23a.26.26,0,0,0-.37-.08.28.28,0,0,0-.08.38A26.44,26.44,0,0,1,15,25.67a.25.25,0,0,0,.33.11A.23.23,0,0,0,15.47,25.46Z" transform="translate(30.3 0)"/>
            <path class="cls-5" d="M7.36,4.37C5.61,4.29,4,6.48,5.29,8c.13.14.41,0,.36-.17a2.57,2.57,0,0,1,.06-2,2.15,2.15,0,0,1,1.67-1A.24.24,0,0,0,7.5,4.5.2.2,0,0,0,7.36,4.37Z" transform="translate(30.3 0)"/>
            <path class="cls-5" d="M5.6,9a2.93,2.93,0,0,0,1.9,1.75,15.11,15.11,0,0,0,3.9.94.2.2,0,0,0,.24-.15.19.19,0,0,0-.15-.24h0c-1.6-.67-4.73-.58-5.39-2.54C6,8.4,5.49,8.64,5.6,9Z" transform="translate(30.3 0)"/>
            <path class="cls-5" d="M-4.64,17.48a4.35,4.35,0,0,1-1.43-3.82c.18-1.15.93-2.09,1-3.26a.18.18,0,0,0-.19-.19.25.25,0,0,0-.17.11C-6,11.65-6.76,13-6.68,14.49A4.66,4.66,0,0,0-5,17.82C-4.75,18-4.44,17.66-4.64,17.48Z" transform="translate(30.3 0)"/>
            <path class="cls-5" d="M-5.08,9.05a2.59,2.59,0,0,1,1-2.15c.71-.54,1.38-.39,2.18-.52a.22.22,0,0,0,.19-.25A.2.2,0,0,0-1.81,6a2.55,2.55,0,0,0-2.65.47,3,3,0,0,0-1,2.61C-5.48,9.3-5.08,9.28-5.08,9.05Z" transform="translate(30.3 0)"/>
            <path class="cls-5" d="M-6.44,11.38a1.42,1.42,0,0,0,.36-1.21A.23.23,0,0,0-6.37,10a.25.25,0,0,0-.17.16c-.15.3-.17.63-.35.93a.28.28,0,0,0,.21.33A.28.28,0,0,0-6.44,11.38Z" transform="translate(30.3 0)"/>
            <path class="cls-5" d="M-21.3,16.36a17.79,17.79,0,0,1,1-3.36,25.41,25.41,0,0,1,2-3.28.18.18,0,0,0-.05-.25.18.18,0,0,0-.21,0,11.06,11.06,0,0,0-3.26,6.76C-21.77,16.5-21.38,16.6-21.3,16.36Z" transform="translate(30.3 0)"/>
            <path class="cls-5" d="M-15.57,7.37A3.51,3.51,0,0,1-14,7.43c.45.13.8.46,1.24.56a.24.24,0,0,0,.3-.14.2.2,0,0,0,0-.17,2.05,2.05,0,0,0-1.45-.85,3.07,3.07,0,0,0-1.8.09C-16,7-15.83,7.42-15.57,7.37Z" transform="translate(30.3 0)"/>
            <path class="cls-5" d="M-21,17.11a1,1,0,0,0,1.27.35c.17-.09.15-.38-.06-.38a1,1,0,0,1-.85-.28.23.23,0,0,0-.33,0A.26.26,0,0,0-21,17.11Z" transform="translate(30.3 0)"/>
            <path class="cls-5" d="M-25.78,37.49c-.63-2.27-1.11-4.25,1-5.83a.21.21,0,0,0,0-.3.19.19,0,0,0-.18-.06c-2.8.57-2,4.52-1.24,6.31C-26.07,37.81-25.72,37.71-25.78,37.49Z" transform="translate(30.3 0)"/>
            <path class="cls-5" d="M-25.59,38.92c.55,1.77,2.88,3,4.59,2a.27.27,0,0,0,.06-.37.27.27,0,0,0-.28-.09,3,3,0,0,1-4-1.54.54.54,0,0,0,0-.11A.19.19,0,0,0-25.59,38.92Z" transform="translate(30.3 0)"/>
            <path class="cls-5" d="M4.12,56c2.53-.12,6.22-1,6.77-4a.21.21,0,0,0-.19-.23.25.25,0,0,0-.19.09A6.23,6.23,0,0,1,8,54.48a12,12,0,0,1-4,1A.27.27,0,0,0,4.12,56Z" transform="translate(30.3 0)"/>
            <path class="cls-5" d="M6.87,49.56a4.93,4.93,0,0,1,1.38-.08,11,11,0,0,0,1.14.12c.2,0,.23-.3.09-.4a3.32,3.32,0,0,0-2.69-.1C6.51,49.18,6.58,49.63,6.87,49.56Z" transform="translate(30.3 0)"/>
            <path class="cls-5" d="M12.63,42.26a1.62,1.62,0,0,0,1.57-.42c.36-.35.73-1,.4-1.44a.27.27,0,0,0-.36,0l-.05,0c-.2.27-.17.61-.41.88a1.29,1.29,0,0,1-1,.43C12.45,41.71,12.31,42.18,12.63,42.26Z" transform="translate(30.3 0)"/>
            <path class="cls-5" d="M15.49,39.53a1,1,0,0,0,1-1,.87.87,0,0,0-.1-.39A.29.29,0,0,0,16,38a.31.31,0,0,0-.17.32c0,.33-.06.61-.41.71a.28.28,0,0,0,.1.55Z" transform="translate(30.3 0)"/>
            <path class="cls-5" d="M-16.5,40.75a1.18,1.18,0,0,0,.13,1.55c.36.34,1.14.54,1.45.05A.23.23,0,0,0-15,42L-15,42c-.24-.07-.5,0-.74-.1a.79.79,0,0,1-.34-.94.22.22,0,0,0-.09-.3A.22.22,0,0,0-16.5,40.75Z" transform="translate(30.3 0)"/>
            <path class="cls-5" d="M-14.9,42.47c-.38.91.68,2.4,1.64,1.65a.23.23,0,0,0,0-.33.21.21,0,0,0-.14-.07c-.53-.07-1.22-.39-1-1a.3.3,0,0,0-.13-.39A.3.3,0,0,0-14.9,42.47Z" transform="translate(30.3 0)"/>
            <path class="cls-5" d="M-7.18,4.6a2,2,0,0,1,1.1-.85,3.5,3.5,0,0,1,1.29,0,.23.23,0,0,0,.25-.2.23.23,0,0,0-.06-.16c-.84-1-2.69-.11-3,.93C-7.72,4.63-7.3,4.86-7.18,4.6Z" transform="translate(30.3 0)"/>
          </g>
        </g>
      </g>
    </g>
  </g>
</svg>