<?xml version="1.0" encoding="utf-8"?>
<svg viewBox="46.217 0 46.463 87.321" xmlns="http://www.w3.org/2000/svg">
  <defs>
    <clipPath id="clip-path" transform="translate(46.23 -0.02)">
      <rect class="cls-1" width="46.49" height="89.64"/>
    </clipPath>
    <style>.cls-1{fill:none;}.cls-2{clip-path:url(#clip-path);}.cls-3{fill:#f2c45d;}.cls-4{fill:#efa54c;}.cls-5{fill:#260029;}.cls-6{fill:#133258;}.cls-7{fill:#90c2c3;}</style>
  </defs>
  <g id="Capa_2" data-name="Capa 2">
    <g id="Capa_1-2" data-name="Capa 1">
      <g class="cls-2">
        <g id="Capa_2-2" data-name="Capa 2">
          <g id="_" data-name=" ">
            <path class="cls-3" d="M35.86,55.49a21.22,21.22,0,0,1-3.13-2.23c1.27-.31,2.74.11,4-.15,1.1-.21,2.21-.77,3.36-1a33,33,0,0,1-4.86-2.79c1.24-.46,2.6-.1,3.8-.63s1.9-1.37,3.28-1.51c-.79-2.49-7.16-1-8.06-3.92a27.76,27.76,0,0,1,3.15-1c1-.16,1.62,0,2.33-.42-2.2,0-3-1.07-4.85-1.61.06-1.13,3.83-2.47,4.77-3.3a6.7,6.7,0,0,0,2.21-4.09c-1.64,1.5-2.5,2.1-4.93,1.85-1.85-.19-3.25-1.22-4.88-2.07,1.75-.6,3-2.43,4.22-3.63-1.72,0-4.06,1-5.61-.39a15.59,15.59,0,0,0,1.94-1.87A42,42,0,0,1,38.1,21c-4.58.5-8.66,3.75-10.33,4.25,1-1.55,2.15-4.73,3.33-6.08-2,.61-3.07.13-5.41,1.41a16.38,16.38,0,0,1,.3-4.19,11.3,11.3,0,0,1,2.17-5.11c-3.14.93-5.4,8.11-8.51,7.62,1-2,1.38-4.24,2.18-6.46-2,.48-2.37,3.87-5,3.28a14.72,14.72,0,0,0,.94-4.24c.06-1.58-.22-3.37.3-4.75-2.11.39-2.5,2.21-3.58,3.87A5.49,5.49,0,0,1,9.9,12.94c1.32-3-.83-4.69-1-7.61-1.35,1.31-1,3-1.59,4.56a10.2,10.2,0,0,1-1.86,2.38A8.1,8.1,0,0,0,3.36,7.33C1.77,5.73-.07,4.63-1.33,2.78c-.2,2.9,2.31,6.11-.2,8.56C-2.36,10-2.34,8-3.07,6.55s-2.31-1.84-3-3.17c-.37,2.08.9,3.08,1.08,5.08s-1.4,2.93-1.47,4.6a10,10,0,0,0-3.65-5.84c-2.24-1.49-4-1.95-4.78-4.95-2.22,2-.84,4.65.2,6.83,1.25,2.64,2.58,5,1.43,7.79l-.69-.7c-.66-.32-.6,0-1.33-.25-1.16-.37-2.29.34-3.43-.29a5.85,5.85,0,0,1-2.41-1.88c-.74-1.41-2.2,0-3.5-.58a19.71,19.71,0,0,1-2.75-2.25c-1,1.07.65,4.67,1.59,5.5,1.86,1.64,2.75,2.67,1.66,5.66-1.1-.93-3.18-1.25-4.54-1.54,0,1.2,1.87,3.66,2.46,4.89a19.41,19.41,0,0,0-2.17-1.13c-1.1-.3-1.71.18-2.7.32a15.38,15.38,0,0,1-5.19-.44c.81,2.9,5.91,2.71,5.64,6.66-1,.11-1.6,0-2.58.08s-2.21.59-3.26.76a37.57,37.57,0,0,1,3.6,1.45,9.65,9.65,0,0,1,3,2.83c-2-.27-3.63-.89-5.63.19a24,24,0,0,1-5.74,1.77c1,.7,4.49.84,5.83,1.05a27.64,27.64,0,0,1,4.56,1.31c-1.58.91-3.62,1.71-5.14,2.64,1.47.24,4.17,1.21,5.62.49-2.86,1.7-3,4.72-9,5.67,1.74,0,3.8.73,5.62,0s2.34-1,4.27-.44a10.47,10.47,0,0,0-3.41,3.47c1.16.07,2.2-.24,3.3-.26-1.51,4.42-10.28,4.54-9.62,8.87,1.41-1.46,2.59-1.21,4.71-1.42,1.43-.14,3.13.75,4.78.64-.61,1.29-.81,2.7-2.37,3.63,1.43-.44,3.82-2.35,5.35-1.53-.49,1.86-.18,3.39-1.75,4.85-1.34,1.24-3.64,1.74-4.09,3.68.83-.13,1.68-.61,2.52-.78,1.11-.22,1.92-.17,2.94-.32,1.37-.2,3.15-2.12,4.52-1.4-.16,1.32-.68,2.64-.9,3.93,1.67-.67,2.63-3,4.55-3.46.19,1.73-1.53,3.24-2.19,4.76a17.63,17.63,0,0,0-1.07,4.59c1.52-.1,3.26-1.62,4.37-2.72.75-.75,2.92-4.22,4.29-3.11.45.37,0,1,.23,1.52s.65.77.88,1.18a7,7,0,0,1,.87,2.67c.32,2.21-.17,4.65.32,6.83a16.55,16.55,0,0,1,1.44-2.65c.68-.76,1.65-1.27,2.31-2.12s1-2.14,1.67-3.14a35.78,35.78,0,0,1,.37,6.29c.17-1.41,2.17-3.66,3.54-4.37,0,2.8-3.46,8.11-.95,10.56.58-2,2.39-4.07,4-5.52s2.79-3,4.22-4.55c0,.07.31.13.41.16a5.61,5.61,0,0,0,0,.58c.31,0,.13.51.45.42-.11.12.45.39.33.5,1.17,2.5,2.09,3.75,4.74,4.82A8,8,0,0,1,10,79.87c.17-1.07.64-4.85,1.55-4.58C15,76.77,17,86.7,18.91,85.56c.56-.34-.64-1.76-.61-2.46a25.66,25.66,0,0,1,1-4.5c.3-1,.76-2.11,1-3.15a17.15,17.15,0,0,0,0-3.36c2,1.64,5.39,3.18,6.66,4.53a40.2,40.2,0,0,0-1.76-5.34c-.61-1.53-1.86-3.36-2.17-5a8.14,8.14,0,0,0,2.8.82,16,16,0,0,0,3,1.08c.34-2.33-1.71-3.55-1.86-5.68,1.33-.06,2.49-.6,3.83-.37s1.85,0,2.89.59a17.17,17.17,0,0,0,3.91,1.82c1.18.25,2.24,1,3.48.94.24-2.87-2-4.58-3.12-7A6.47,6.47,0,0,0,35.86,55.49Z" transform="translate(46.23 -0.02)"/>
            <path class="cls-4" d="M-22.35,47.59c-2.31-3.94,1-11.41,2.68-15.08,2.5-5.36,7.81-7.29,12.67-9.78,4.43-2.26,9.93-2.07,14.8-1.09s7.81,4.15,11.19,7.5c3.85,3.83,4.5,8.42,5,13.59A22.51,22.51,0,0,1,20.51,57c-6,10-17.32,12.83-27.79,9.5-7.49-2.38-16.9-13.16-15.23-21.7Z" transform="translate(46.23 -0.02)"/>
            <path class="cls-4" d="M-26.53,29.73c.92.78,1.41,2.4,2.14,3.46a14.27,14.27,0,0,0,2.75,2.63c.86-.86,2.06-2.11,1.77-3.45-1.12-.3-2.52-.43-3.68-.62s-1.81-1.38-2.51-1.55Z" transform="translate(46.23 -0.02)"/>
            <path class="cls-4" d="M-9.59,23.29c-1.3-1.67-.81-3.63-.84-5.69.61.71,1,1.67,1.58,2.43a7.73,7.73,0,0,1,1.53,2.06c-.6.57-2.07.71-2.39,1.43Z" transform="translate(46.23 -0.02)"/>
            <path class="cls-4" d="M17,26.86c-.61-1.69.63-2.53,2-3.1a7.42,7.42,0,0,0,3.59-2.7c-.31,2.16-1.44,2.61-2.61,4.14-.53.7-.39,1.39-1.12,2s-1.89.68-1.76-.33Z" transform="translate(46.23 -0.02)"/>
            <path class="cls-4" d="M23.45,51.79a7.78,7.78,0,0,1,2.86,2.51c.78,1,1,1.31,1.86,2.28-1.57-1.15-3.74-1.17-5.42-1.8a4.29,4.29,0,0,1,1.17-2.27Z" transform="translate(46.23 -0.02)"/>
            <path class="cls-4" d="M8.42,66.7a12.93,12.93,0,0,0,3.7,2.87c1.47.8,2.6,1.4,3.22,3.06a5.75,5.75,0,0,0-1.17-3.9c-.71-1-1.85-2.26-1.48-3.55-.83-.4-3.57.73-3.56,1.88Z" transform="translate(46.23 -0.02)"/>
            <path class="cls-4" d="M-10.67,64.44c-1.25.3-2,1.66-2.59,2.63-.81,1.21-1.93,1.82-2.82,2.84,1-1.4,1.28-3.59,1.86-5.35.34-1,.42-1.65,1.37-1.17a12.27,12.27,0,0,1,2.06,1.88Z" transform="translate(46.23 -0.02)"/>
            <path class="cls-4" d="M-20.69,53.94c-1-1-5.24.43-6.39,1A23.51,23.51,0,0,1-23.43,51c2.08-1.85,1.79,1.75,2.62,3.1Z" transform="translate(46.23 -0.02)"/>
            <path class="cls-5" d="M-18.74,57.76c-6.76-9.8-4.61-24.81,5-31.87,10.86-8,26.39-5.83,34,5.43a22.93,22.93,0,0,1-5,31.25C3.77,71.48-10.61,67.41-19.36,57c-.19-.23-.63,0-.46.3C-7.66,76.62,24.52,68.62,25.39,45.47,26.23,22.93-2.16,11.86-17.44,28c-7.12,7.49-8.28,21.9-1.66,30.11C-18.9,58.31-18.57,58-18.74,57.76Z" transform="translate(46.23 -0.02)"/>
            <path class="cls-5" d="M-13.74,25.14c-1.45-1-1.31-4.62-.89-6.05a17.54,17.54,0,0,1,.87-1.93,8.34,8.34,0,0,0,.94-3A7.08,7.08,0,0,0-14,10.75c-.19-.37-.49-.71-.71-1.08A9.34,9.34,0,0,1-14.43.29.18.18,0,0,0-14.52,0a.2.2,0,0,0-.21,0c-1.5,1.87-2.61,4.13-2.08,6.62.78,3.63,4.11,5,3,9.39-.83,3.27-4.27,7-.11,9.33C-13.74,25.51-13.55,25.26-13.74,25.14Z" transform="translate(46.23 -0.02)"/>
            <path class="cls-5" d="M-14.73.15C-16.4,3.55-13.56,5.31-10.94,7c1.45.91,3,1.72,3.74,3.39.86,1.82.12,3.46.54,5.24.57,2.47,2.9,3,3.88,5.28.11.24.53.12.45-.15-.53-1.87-1.81-2-3-3.47-1.62-2.1-.31-4.86-1.38-7.16C-8.51,6.26-16.46,5.61-14.4.32-14.23.05-14.62-.07-14.73.15Z" transform="translate(46.23 -0.02)"/>
            <path class="cls-5" d="M-3.89,18.28C-5.34,14.05-1.47,12.49-.33,9,.59,6.2-1.7,4-1.49,1.21a.17.17,0,0,0-.22-.13.17.17,0,0,0-.13.13A7.29,7.29,0,0,0-1.4,4.64c1,3.23.44,4.75-1.49,7.42C-4.38,14.13-5.44,16-4.23,18.44-4.13,18.67-3.82,18.5-3.89,18.28Z" transform="translate(46.23 -0.02)"/>
            <path class="cls-5" d="M-1.7,1.32C-.2,4.32,3.46,6,4.53,9.16c.64,1.9-.06,3.9.6,5.82.8,2.32,1.94,3.74,1.79,6.52a.14.14,0,0,0,.1.16.13.13,0,0,0,.16-.1h0a5.49,5.49,0,0,0-.32-4.4A12.78,12.78,0,0,1,5.42,13c-.1-1.06.11-2.12-.09-3.17C4.63,6.09.5,4.25-1.32,1.14-1.45.91-1.82,1.08-1.7,1.32Z" transform="translate(46.23 -0.02)"/>
            <path class="cls-5" d="M2.61,67.92c-.25,5.69,4.89,5.86,8.77,8.19,4.37,2.62,2.68,9.94,8.58,10.63a.17.17,0,0,0,.07-.32c-5.23-1.87-3.54-6.8-7-10s-9.85-2.23-9.91-8.5C3.08,67.66,2.62,67.61,2.61,67.92Z" transform="translate(46.23 -0.02)"/>
            <path class="cls-5" d="M20,86.41c-3-4.67,1.25-9,.76-13.79a10.89,10.89,0,0,0-1.84-5c-1-1.46-3.32-3.11-3.7-4.7-.05-.22-.42-.23-.41,0,0,1.35.37,1.61,1.22,2.63,2.74,3.45,4.74,5.8,3.74,10.56-.84,3.9-3,7-.09,10.5C19.82,86.77,20.11,86.59,20,86.41Z" transform="translate(46.23 -0.02)"/>
            <path class="cls-5" d="M20.42,72.08a6.86,6.86,0,0,0,3.12,2.64,14.38,14.38,0,0,1,2.36,1.4,9.9,9.9,0,0,1,1.87,2.45c.1.14.31,0,.29-.14-.44-3.59-5.53-4-7.39-6.54C20.59,71.73,20.33,71.9,20.42,72.08Z" transform="translate(46.23 -0.02)"/>
            <path class="cls-5" d="M27.84,77.73c-.18-4.93-4.39-8.29-4.42-13.1,0-3,.74-6-1.92-8-.31-.23-.63.24-.34.49,3.09,2.65.9,7,1.93,10.35,1.16,3.78,3.79,6.19,4.35,10.33A.2.2,0,0,0,27.84,77.73Z" transform="translate(46.23 -0.02)"/>
            <path class="cls-5" d="M-2.72,67.61c-2.49,2.31-.1,5.6.51,8.23.82,3.51-1.39,5.54-1.85,8.81a8.47,8.47,0,0,0,1,4.86c.09.21.4.06.32-.16-1.07-3-.68-5.31.42-8.1a9.48,9.48,0,0,0,1-3.69c-.07-3.1-3.56-6.87-1.07-9.63C-2.18,67.73-2.52,67.43-2.72,67.61Z" transform="translate(46.23 -0.02)"/>
            <path class="cls-5" d="M-2.64,89.45c.29-4.08,4.43-5.62,6.86-8.32a9.15,9.15,0,0,0,2.55-7.42c0-.22-.35-.19-.38,0-.38,2.25-.54,4.11-1.94,6a22.11,22.11,0,0,1-4.2,4c-1.88,1.53-3.53,3.17-3.37,5.74A.25.25,0,0,0-2.64,89.45Z" transform="translate(46.23 -0.02)"/>
            <path class="cls-5" d="M18.35,28.1c2.38-3.85,7.35-1,10.73-2.79,2.25-1.17,3.39-2.65,6.1-3.2,1.62-.34,2.09-.2,3.16-1.52.16-.19-.14-.46-.33-.3-1.78,1.58-4.47,1-6.46,2.33-1.5,1-2.09,2.15-4.12,2.63A15,15,0,0,1,24,25.3c-2.4,0-5.09,0-6,2.6A.19.19,0,1,0,18.35,28.1Z" transform="translate(46.23 -0.02)"/>
            <path class="cls-5" d="M22.86,34.93a6.75,6.75,0,0,0,2.83-1.41,6,6,0,0,0,2-2.61.23.23,0,0,0-.15-.29.23.23,0,0,0-.21,0c-.76.63-1.2,1.63-1.95,2.32a7.58,7.58,0,0,1-2.61,1.58C22.54,34.64,22.65,35,22.86,34.93Z" transform="translate(46.23 -0.02)"/>
            <path class="cls-5" d="M27.35,31.4c1.44-2.47,4.62-2.89,6.12-5.33a7.19,7.19,0,0,1,2.3-2.48c.36-.24.73-.37,1.08-.63a3.63,3.63,0,0,0,1.57-2.32c.06-.31-.43-.41-.53-.12-.69,1.85-2.17,2-3.52,3.15C33.29,24.56,33,26,32,26.93c-1.68,1.56-4,2-5,4.28C26.92,31.42,27.24,31.59,27.35,31.4Z" transform="translate(46.23 -0.02)"/>
            <path class="cls-5" d="M14.77,24.69c.76-4.42,5.11-4.68,7.94-7.2,2.5-2.24,3.18-5.46,6.11-7.42.16-.11,0-.33-.17-.26-3.93,1.62-4.58,6.4-8.28,8.48-2.6,1.46-6,2.88-6,6.36a.18.18,0,0,0,.2.16A.16.16,0,0,0,14.77,24.69Z" transform="translate(46.23 -0.02)"/>
            <path class="cls-5" d="M22.3,25.73c2.24-.84,3-2.42,3.37-4.71a25,25,0,0,1,1.58-5.83c.6-1.48.79-3.76,1.6-5.07a.17.17,0,0,0,0-.24.17.17,0,0,0-.23,0c-.64.43-.56.45-.85,1.14-.68,1.6-1,3.48-1.63,5.14-1.34,3.25-.42,7.32-4,9.24a.18.18,0,0,0,.18.32Z" transform="translate(46.23 -0.02)"/>
            <path class="cls-5" d="M17,26.19c.25-2.17,1.9-2.7,3.68-3.52,1.19-.55,2.64-1.33,2.8-2.79a.18.18,0,0,0-.15-.21.18.18,0,0,0-.2.13c-.86,1.93-2.69,2.33-4.42,3.25-1.21.64-2.32,1.65-2,3.15a.16.16,0,0,0,.22.07A.18.18,0,0,0,17,26.19Z" transform="translate(46.23 -0.02)"/>
            <path class="cls-5" d="M19.71,26.09c.47-1.52,1.73-2,2.73-3.13a4.41,4.41,0,0,0,1-3.08c0-.14-.2-.2-.25-.06a20.88,20.88,0,0,1-.56,2.06,5.18,5.18,0,0,1-1.52,1.64A3.92,3.92,0,0,0,19.33,26a.2.2,0,0,0,.2.2A.19.19,0,0,0,19.71,26.09Z" transform="translate(46.23 -0.02)"/>
            <path class="cls-5" d="M43.9,47.12a3.15,3.15,0,0,0-2.79-1.72c-.87-.09-1.76.12-2.63,0-2.2-.33-3.45-1.6-5-2.9-2.86-2.36-5.72-4.1-9-1.47-.21.16,0,.54.26.39,4.62-2.76,7.12,1.1,10.53,3.35,2.42,1.59,6.53.32,8.29,2.58C43.7,47.53,44,47.32,43.9,47.12Z" transform="translate(46.23 -0.02)"/>
            <path class="cls-5" d="M24.31,49.84a7.54,7.54,0,0,0,4.46-.07c.71-.21,1.31-.61,2-.78,1.79-.44,3.19.06,5,.3a6.69,6.69,0,0,0,2.14.11c1.83-.31,3.92-2.93,5.77-1.65a.29.29,0,1,0,.33-.48c-.77-.58-.84-.68-1.8-.61-3.23.23-2.54,2.39-7.14,1.76A11.56,11.56,0,0,0,31.66,48a11.17,11.17,0,0,0-2.08.73,12.38,12.38,0,0,1-5.23.65.23.23,0,1,0,0,.46Z" transform="translate(46.23 -0.02)"/>
            <path class="cls-5" d="M-39.13,61.94c-.8-4.85,4.59-5.11,7.44-7.32a6.29,6.29,0,0,0,2-2.77c.53-1.24.79-2.74,1.92-3.65,1.36-1.1,3.26-.47,4.82-.73a.27.27,0,0,0,.21-.32.27.27,0,0,0-.21-.21c-2.22,0-4.18-.64-5.82,1.3-1.9,2.25-1.64,4.95-4.56,6.54s-7.4,2.9-6.22,7.22a.21.21,0,0,0,.24.18A.21.21,0,0,0-39.13,61.94Z" transform="translate(46.23 -0.02)"/>
            <path class="cls-5" d="M-39.23,62.1c.89-4.21,6.76-1.57,9.12-1.84A20.42,20.42,0,0,0-27,59.35c2.81-.77,5.81,1,7.87-1.35.19-.23-.17-.56-.39-.35-1.42,1.33-4.85.3-6.72.75a34,34,0,0,1-3.83,1.19c-1.48.17-2.91-.4-4.35-.51-2-.14-5.26.47-5.08,3A.16.16,0,0,0-39.23,62.1Z" transform="translate(46.23 -0.02)"/>
            <path class="cls-5" d="M-15.82,61.44c-3.08.66-3.07,3.08-3.11,5.78s-1.1,3.29-2.55,5.13c-1.84,2.32,0,5-3.27,6.8a.24.24,0,0,0-.11.31.23.23,0,0,0,.31.11,4.1,4.1,0,0,0,2.32-1.7,7.67,7.67,0,0,0,.47-2,5.91,5.91,0,0,1,1.4-3.77A6.53,6.53,0,0,0-19,70.86c2-3-1.16-7.46,3.36-9.06C-15.49,61.74-15.6,61.39-15.82,61.44Z" transform="translate(46.23 -0.02)"/>
            <path class="cls-5" d="M-24.31,79.55a12,12,0,0,0,4.14-1.73c1.93-1.51,2.63-3.6,5-4.59,1.41-.58,3-.76,4.21-1.75,1.74-1.4,1.56-3.63,3.08-5.19a.19.19,0,0,0,0-.28.21.21,0,0,0-.25,0c-1.4.91-1.27,2.09-2,3.5-1.38,2.56-3.81,2.36-6.09,3.51a6.76,6.76,0,0,0-2.22,2,12.56,12.56,0,0,1-6,4.23C-24.63,79.27-24.52,79.61-24.31,79.55Z" transform="translate(46.23 -0.02)"/>
            <path class="cls-5" d="M-37.17,22.34a4.79,4.79,0,0,0,1.7,4.28c1.6,1.19,3,1.81,4,3.8a10.2,10.2,0,0,0,1,2.11,6.25,6.25,0,0,0,2,1.57,9.17,9.17,0,0,1,3.09,3.28A2.91,2.91,0,0,0-22.23,39c.41,0,.48-.65.07-.63-2.62.08-2.64-1.94-4.08-3.44C-27.42,33.71-28.95,33.4-30,32s-.87-3.13-2.21-4.31c-1.93-1.69-4.37-1.7-4.55-5.31C-36.8,22.11-37.16,22.13-37.17,22.34Z" transform="translate(46.23 -0.02)"/>
            <path class="cls-5" d="M-37.12,22.34c1.52,3.76,3.52,1.93,6.71,2,2.56,0,3.31,1.89,5.32,2.81,2.5,1.17,4.91-.43,6.94,2.29.26.35.78-.09.52-.44a4.41,4.41,0,0,0-2.6-2.11,8.22,8.22,0,0,0-1.57-.05c-2.78-.13-2.88-.31-4.9-1.82a5.3,5.3,0,0,0-2.9-1.39c-2.72-.25-5,2.43-7.21-1.44a.17.17,0,0,0-.23-.08.18.18,0,0,0-.08.23Z" transform="translate(46.23 -0.02)"/>
            <path class="cls-5" d="M-42.54,37.6a6.23,6.23,0,0,0,3.09.11c2.24-.58,3.53-2.34,6.08-2,2.71.39,3.66.63,5.8-1.23a.27.27,0,0,0,0-.39.29.29,0,0,0-.33,0c-1.76,1.36-2.68,1.57-5,1.18A5.63,5.63,0,0,0-35,35a9.74,9.74,0,0,0-2.85,1.37,7.28,7.28,0,0,1-4.64.85C-42.72,37.27-42.73,37.55-42.54,37.6Z" transform="translate(46.23 -0.02)"/>
            <path class="cls-5" d="M-42.47,37.57c3.15,2.3,7,1.46,10.45,3.08,1.34.63,2.61,1.62,4.11,1.89s3.18-.15,4.74,0a.27.27,0,0,0,.29-.23.26.26,0,0,0-.24-.29c-1.87-.38-3.81.25-5.66-.35-1.24-.41-2.3-1.29-3.49-1.81-3.27-1.42-6.83-.64-10-2.52a.17.17,0,0,0-.21.08A.16.16,0,0,0-42.47,37.57Z" transform="translate(46.23 -0.02)"/>
            <path class="cls-5" d="M-40.54,49.2c2.31-.28,4.62-.71,6.47-2.21,2-1.67,2.92-4.08,5.71-4.77a.28.28,0,0,0,.23-.32.29.29,0,0,0-.32-.22h0c-1.82.19-2.94,1.31-4,2.67a11.24,11.24,0,0,1-3.22,3,20.85,20.85,0,0,1-4.9,1.42.21.21,0,0,0-.2.23A.21.21,0,0,0-40.54,49.2Z" transform="translate(46.23 -0.02)"/>
            <path class="cls-5" d="M-40.74,49.34c1.8-.07,3.52.77,5.33.48s4.48-2.13,6.18-.32c.26.28.7-.1.45-.38-1.22-1.34-2.73-1-4.34-.57a10.59,10.59,0,0,1-3.6.76c-1.41-.08-2.62-.56-4-.33C-40.95,49-40.95,49.35-40.74,49.34Z" transform="translate(46.23 -0.02)"/>
            <path class="cls-5" d="M-24.08,58.45c-3.06.16-3.08,3.34-3.42,5.69-.56,3.81-5.23,3.7-5.91,7.24a.2.2,0,0,0,.38.09c1-2.69,4.16-2.88,5.52-5.21,1.44-2.48-.31-6.69,3.49-7.46C-23.78,58.76-23.85,58.44-24.08,58.45Z" transform="translate(46.23 -0.02)"/>
            <path class="cls-5" d="M-33.09,71.54c2.54-2.13,5.79-1.06,8.51-2.62a19.41,19.41,0,0,1,4.35-2.28c.95-.27,1.3-.19,2-1,.18-.21-.14-.45-.34-.31-1.18.84-2.76.65-4,1.38-1.59.93-2.5,2.05-4.46,2.41-2.38.44-4.54.2-6.26,2.14A.17.17,0,1,0-33.09,71.54Z" transform="translate(46.23 -0.02)"/>
            <path class="cls-5" d="M-12.61,72c-1.71,0-1.27,1.62-.79,2.7.94,2.11,1.67,2.78,1.21,5.39-.35,2,.36,3.29.42,5.28a.2.2,0,0,0,.19.19.19.19,0,0,0,.19-.19c.36-1.56-.53-2.81-.37-4.43.13-1.34.75-2.54.33-3.9-.37-1.17-3.09-4-1.13-4.77a.17.17,0,0,0,0-.23Z" transform="translate(46.23 -0.02)"/>
            <path class="cls-5" d="M-11.38,85.09c.66-3,3.43-4,4.82-6.47a5.44,5.44,0,0,1,3-2.83,2.19,2.19,0,0,0,1.42-1.45c.1-.26-.28-.47-.43-.23C-3.25,75.19-4.5,75.24-5.42,76s-1.35,2.08-2.07,3.12c-1.51,2.19-4.11,3-4.24,6a.2.2,0,0,0,.28.07A.27.27,0,0,0-11.38,85.09Z" transform="translate(46.23 -0.02)"/>
            <path class="cls-5" d="M-23,26.78c-3-2.09.26-5.63-.76-8.33a7.16,7.16,0,0,0-1.7-2.24,6.4,6.4,0,0,1-1.82-6,.19.19,0,0,0-.36-.08,5.8,5.8,0,0,0-.12,4.22c1,2.16,3.42,2.88,3.59,5.53s-2.29,5.75,1,7.17a.19.19,0,0,0,.2-.16A.2.2,0,0,0-23,26.78Z" transform="translate(46.23 -0.02)"/>
            <path class="cls-5" d="M-27.56,10.28a3.24,3.24,0,0,0,1.67,2.41c1.44.82,3-.07,4.44.81,1.18.71,1.79,2.24,3.18,2.65,1.19.34,3.21-.81,3.93.81a.23.23,0,0,0,.29.15.23.23,0,0,0,.15-.29c-.27-1.91-1.8-1.17-3.21-1.24-2.43-.12-2.72-2.13-4.54-3s-4.68,1.24-5.49-2.41C-27.23,10-27.61,10-27.56,10.28Z" transform="translate(46.23 -0.02)"/>
            <path class="cls-5" d="M6.48,16.87C6.6,13,9.9,13.58,12.59,12.39a4,4,0,0,0,2.12-1.89c.34-.59.5-1.27.79-1.89a6,6,0,0,1,3.64-3c.17-.07.08-.36-.09-.31a5.8,5.8,0,0,0-3.81,2.5c-.85,1.43-.88,3-2.51,3.88a11,11,0,0,1-2.56.77c-2.38.61-4.58,1.57-4,4.44a.19.19,0,0,0,.25.05A.13.13,0,0,0,6.48,16.87Z" transform="translate(46.23 -0.02)"/>
            <path class="cls-5" d="M18.63,5.42c-2.3,2.23-.75,4-1,6.85-.12,1.65-1.23,2.78-1.42,4.36-.15,1.32.59,2.29.8,3.57a.22.22,0,0,0,.26.17.23.23,0,0,0,.17-.17,14.91,14.91,0,0,0-.37-2.75c-.2-1.79.55-2.32,1-3.93.76-2.64-1.64-5.33.77-7.75C19.11,5.56,18.84,5.23,18.63,5.42Z" transform="translate(46.23 -0.02)"/>
            <path class="cls-5" d="M30.15,40.73c3.46,1.38,5.2-1.48,8-2.89,2.5-1.26,4.61-2.68,4.79-5.79a.16.16,0,0,0-.14-.18.18.18,0,0,0-.17.11,9.3,9.3,0,0,1-2,3.64,13.63,13.63,0,0,1-3.39,2c-2.47,1.36-3.87,3.47-7.07,2.88C30.05,40.43,30,40.67,30.15,40.73Z" transform="translate(46.23 -0.02)"/>
            <path class="cls-5" d="M42.55,31.74c-2.32,2.5-4.43,3.13-7.39,1.48-1-.53-1.94-1-3-1.49s-3.62-1.88-4.88-.95c-.26.19,0,.53.28.44,2.51-.84,6.21,2.07,8.33,3.08,2.88,1.36,5.08-.09,6.88-2.3C42.94,31.83,42.69,31.59,42.55,31.74Z" transform="translate(46.23 -0.02)"/>
            <path class="cls-5" d="M23.06,60.77c1,3.07,3.8,2.19,6.34,1.84a5.28,5.28,0,0,1,4.71,1.2c.44.37.62.93,1.15,1.22a2.94,2.94,0,0,0,1.42.33c2.63.31,3.11-.45,5.36,1.78a.22.22,0,0,0,.31,0,.21.21,0,0,0,0-.25,4.42,4.42,0,0,0-3.07-2.17c-1.69-.34-2.54.4-4.35-.84-.42-.29-.69-.88-1.11-1.21-3-2.34-8.62,2.07-10.36-2C23.39,60.41,23,60.53,23.06,60.77Z" transform="translate(46.23 -0.02)"/>
            <path class="cls-5" d="M27.42,49.81a23.1,23.1,0,0,1,3,1.35c2,1.37,1.24,1.75,2.35,2.84s2.12,1.14,3.22,2c1.81,1.35,1.84,3.4,3.08,5,.42.54,1.06,1,1.49,1.53,1.12,1.43,1.13,2.69,1.49,4.4a.2.2,0,0,0,.24.15.21.21,0,0,0,.15-.15,6.66,6.66,0,0,0-1-4.56,7,7,0,0,0-.65-.68,4.63,4.63,0,0,1-2.17-3.38c-.38-.89-.1-1-.79-1.82s-.89-.6-1.61-1.09a33.93,33.93,0,0,1-4-3.48,11.44,11.44,0,0,0-4.59-2.49.21.21,0,0,0-.29.08A.22.22,0,0,0,27.42,49.81Z" transform="translate(46.23 -0.02)"/>
            <path class="cls-5" d="M-27.5,10.42c.14,1.59,2.42,4,4,2.51a.16.16,0,0,0,0-.24.15.15,0,0,0-.14,0A2.71,2.71,0,0,1-26,12.23a4.33,4.33,0,0,1-1.25-1.9C-27.23,10.16-27.52,10.26-27.5,10.42Z" transform="translate(46.23 -0.02)"/>
            <path class="cls-5" d="M-6.34,13.38c-.34-2.31,1.78-3.89,1.62-6.11-.15-2-2.72-3.46-1-5.51.09-.12-.08-.26-.19-.17-1.62,1.29-.57,2.57.13,4.12.88,2,.28,3-.45,4.82a3.87,3.87,0,0,0-.32,2.89C-6.54,13.57-6.32,13.55-6.34,13.38Z" transform="translate(46.23 -0.02)"/>
            <path class="cls-5" d="M-6,1.82c-.15,1.67,1,2.25,2,3.41C-2.63,6.88-2.76,9-1.69,10.78a.19.19,0,0,0,.26.09.18.18,0,0,0,.09-.25A24.63,24.63,0,0,0-2.83,6.13c-.85-1.57-2.79-2.41-2.9-4.32C-5.74,1.64-6,1.66-6,1.82Z" transform="translate(46.23 -0.02)"/>
            <path class="cls-5" d="M5.24,12.1c.56-1.54,2.19-2.3,2.58-4S7.67,5,9.42,3.77c.17-.11,0-.37-.19-.29-1.45.63-1.64,1.74-1.72,3.19a5.11,5.11,0,0,1-1.4,3.47A4.73,4.73,0,0,0,5,12a.15.15,0,0,0,.28.1Z" transform="translate(46.23 -0.02)"/>
            <path class="cls-5" d="M9.18,3.74A4.28,4.28,0,0,0,9.25,7.5a8.2,8.2,0,0,1,1,2.52c.08,1.06-.59,1.88-.55,2.91a.23.23,0,1,0,.46,0c.08-1.49,1-2.44.4-4-.64-1.8-1.82-3.11-1.1-5.16C9.5,3.66,9.25,3.58,9.18,3.74Z" transform="translate(46.23 -0.02)"/>
            <path class="cls-5" d="M16.84,16.27c.31-1.41,2.44-1.47,3.42-2.21s1.2-2.34,2.51-3.06a.16.16,0,0,0,0-.22.15.15,0,0,0-.14-.07c-1.64.14-1.85,2.61-3.25,3.28-1,.48-2.92.85-2.9,2.26a.18.18,0,0,0,.21.12A.18.18,0,0,0,16.84,16.27Z" transform="translate(46.23 -0.02)"/>
            <path class="cls-5" d="M20.08,18.64c1.06-.77,1.21-2.45,1.58-3.64A18.76,18.76,0,0,1,23,11c.08-.14-.06-.37-.23-.27-.8.5-1,2-1.18,2.8-.17.63-.33,1.27-.54,1.89-.33,1-.43,2.27-1.16,3a.18.18,0,0,0,.1.22Z" transform="translate(46.23 -0.02)"/>
            <path class="cls-5" d="M25.33,21.18c2-1.7,5.07-.65,6.7-3,.17-.24-.18-.47-.37-.26-1.15,1.33-2.5,1.46-4.12,1.77A3.64,3.64,0,0,0,25.11,21a.14.14,0,0,0,.09.19A.15.15,0,0,0,25.33,21.18Z" transform="translate(46.23 -0.02)"/>
            <path class="cls-5" d="M27.56,25.27a4.8,4.8,0,0,0,2.15-2.82,8.78,8.78,0,0,1,2.39-4.12c.11-.09,0-.33-.13-.28a3.81,3.81,0,0,0-2.14,2.57c-.62,1.63-.92,3.32-2.45,4.38C27.23,25.1,27.4,25.36,27.56,25.27Z" transform="translate(46.23 -0.02)"/>
            <path class="cls-5" d="M30.37,28.6c1.13-.24,1.93.63,3,.66,1.55,0,2.61-1,4.25-.51.19.05.35-.21.17-.32-1.16-.69-2.1-.22-3.3.14a3.91,3.91,0,0,1-2.69-.28,2.18,2.18,0,0,0-1.51,0C30.11,28.32,30.15,28.64,30.37,28.6Z" transform="translate(46.23 -0.02)"/>
            <path class="cls-5" d="M32.24,31.88A2.58,2.58,0,0,0,34.7,30.8c1-1,1.73-2.19,3.29-2a.21.21,0,0,0,.09-.41c-2.46-1-3.47,3.25-5.77,3.2C32.15,31.57,32.06,31.83,32.24,31.88Z" transform="translate(46.23 -0.02)"/>
            <path class="cls-5" d="M34.54,39.85c2,0,4.1,3.11,6.13,1.63a.16.16,0,0,0,0-.24.15.15,0,0,0-.14-.05c-1.46.35-2.25-.22-3.45-1a3.89,3.89,0,0,0-2.56-.69C34.35,39.56,34.36,39.86,34.54,39.85Z" transform="translate(46.23 -0.02)"/>
            <path class="cls-5" d="M34.08,43.47c1.49-.06,2.65-1.08,4.14-1.07A3.27,3.27,0,0,0,41,41.5a.19.19,0,0,0,0-.28.21.21,0,0,0-.25,0,3.32,3.32,0,0,1-2,.76,7,7,0,0,0-1.29,0c-1.18.21-2.09,1-3.32,1.14C33.89,43.16,33.9,43.47,34.08,43.47Z" transform="translate(46.23 -0.02)"/>
            <path class="cls-5" d="M23.14,65.53c-.1,1.27.9,1.88,2,2.15,1.68.41,3.4.3,4.6,1.74a.19.19,0,0,0,.27,0,.19.19,0,0,0,0-.19c-1.15-2.83-6.08-.49-6.63-3.71a.14.14,0,0,0-.2-.07A.12.12,0,0,0,23.14,65.53Z" transform="translate(46.23 -0.02)"/>
            <path class="cls-5" d="M29.92,69c-.13-2.24-1.6-4.65-2.84-6.45-.16-.24-.57,0-.43.28A30.56,30.56,0,0,1,29.57,69a.17.17,0,0,0,.22.13A.16.16,0,0,0,29.92,69Z" transform="translate(46.23 -0.02)"/>
            <path class="cls-5" d="M32.06,52.59a4.82,4.82,0,0,0,3.28,1.18c2.21-.13,4-1.47,6.26-1,.15,0,.25-.22.11-.3a3.76,3.76,0,0,0-3.13-.07c-2.39.72-4.06,1.38-6.35-.06a.15.15,0,0,0-.17.25Z" transform="translate(46.23 -0.02)"/>
            <path class="cls-5" d="M41.77,52.42A18,18,0,0,0,38,50.5c-1.15-.45-2.08-1.63-3.26-1.86a.24.24,0,0,0-.24.22.23.23,0,0,0,.09.19,23,23,0,0,0,3,2c1.35.52,2.62,1.21,3.93,1.81A.24.24,0,0,0,41.77,52.42Z" transform="translate(46.23 -0.02)"/>
            <path class="cls-5" d="M5.71,77.81c-.94,2.13.34,2.54,1.5,4.08.57.76.43,1.83,1.17,2.44,1,.78,2.5.62,2.88,2.12,0,.16.3.17.3,0,.11-2-2.47-1.6-3.22-3-.41-.79-.35-1.4-1-2.09C6.22,80.23,5.51,79.8,6,78A.17.17,0,0,0,6,77.73.18.18,0,0,0,5.71,77.81Z" transform="translate(46.23 -0.02)"/>
            <path class="cls-5" d="M11.64,86.39c.21-2.57-2.56-4.26-1.32-6.88.72-1.53,1.56-2.62.7-4.3a.22.22,0,0,0-.31-.11.24.24,0,0,0-.11.31c.94,2.37-1.36,3.53-1.25,5.73.09,1.88,1.71,3.36,1.94,5.27C11.31,86.61,11.63,86.59,11.64,86.39Z" transform="translate(46.23 -0.02)"/>
            <path class="cls-5" d="M-5.41,83.48c1-2.4-.57-5,.89-7.32a.19.19,0,0,0-.06-.25.18.18,0,0,0-.16,0c-2.18,1-.45,5.66-1,7.46a.19.19,0,0,0,.11.23A.18.18,0,0,0-5.41,83.48Z" transform="translate(46.23 -0.02)"/>
            <path class="cls-5" d="M-5.4,83.54c.9-1.32,1.44-2.84,2.53-4,.61-.68,1.54-1.41,1.54-2.38a.18.18,0,0,0-.15-.2.18.18,0,0,0-.18.08C-2.3,78-3,78.81-3.72,79.72a29.2,29.2,0,0,0-2,3.64C-5.81,83.53-5.53,83.74-5.4,83.54Z" transform="translate(46.23 -0.02)"/>
            <path class="cls-5" d="M-30,19.36c2,1.95,1.79,6,4.72,7,.15.05.29-.18.14-.27-2.62-1.53-2.48-5-4.66-6.91C-29.95,19-30.14,19.24-30,19.36Z" transform="translate(46.23 -0.02)"/>
            <path class="cls-5" d="M-29.89,19.38c1.32,1.62,3.85,1.42,5.23,3a.22.22,0,0,0,.3,0,.19.19,0,0,0,.07-.2c-.16-.82-1.23-1.21-1.94-1.51a11.55,11.55,0,0,1-3.44-1.58C-29.81,19-30,19.23-29.89,19.38Z" transform="translate(46.23 -0.02)"/>
            <path class="cls-5" d="M-37.23,42.65a2.4,2.4,0,0,0,1.95.87A7.13,7.13,0,0,1-32,44.2a.19.19,0,0,0,.26,0,.19.19,0,0,0,0-.26c-1.2-1.7-3.86-.2-5.31-1.51C-37.16,42.31-37.33,42.52-37.23,42.65Z" transform="translate(46.23 -0.02)"/>
            <path class="cls-5" d="M-37.18,42.71a2.42,2.42,0,0,0,2.5-.36c.42-.29.79-.64,1.2-.94s1.08-.49,1.59-.82c.15-.1,0-.3-.1-.33-.79-.16-1.61.55-2.18,1a3.51,3.51,0,0,1-2.93,1.11.18.18,0,0,0-.21.13.18.18,0,0,0,.13.21Z" transform="translate(46.23 -0.02)"/>
            <path class="cls-5" d="M-37.29,31.13c.85,1.76,3,1.29,4.28,2.55.87.83,1.81,2.39,3.22,2a.22.22,0,0,0,.15-.27.23.23,0,0,0-.23-.16c-1.52.18-2.32-1.72-3.44-2.47S-36.06,32.34-37,31C-37.14,30.83-37.36,31-37.29,31.13Z" transform="translate(46.23 -0.02)"/>
            <path class="cls-5" d="M-37.48,31.14a9.62,9.62,0,0,0,2.36.54c1.45,0,2.6-1.13,4.07-.46.27.13.49-.3.24-.45a2.85,2.85,0,0,0-2.66,0,4.64,4.64,0,0,1-2.3.37,12.67,12.67,0,0,0-1.63-.31C-37.58,30.81-37.68,31.09-37.48,31.14Z" transform="translate(46.23 -0.02)"/>
            <path class="cls-5" d="M-24.58,72.45a2.37,2.37,0,0,0,1.47-2.08c.09-.55.11-1.12.2-1.67A3.5,3.5,0,0,1-22,66.84c.11-.14-.07-.29-.2-.25-.83.3-1.11,1.28-1.23,2.06-.2,1.33,0,2.69-1.33,3.5a.18.18,0,0,0,0,.24A.18.18,0,0,0-24.58,72.45Z" transform="translate(46.23 -0.02)"/>
            <path class="cls-5" d="M-24.54,72.46a4,4,0,0,0,2.63-1.18,8.38,8.38,0,0,1,3.16-2.08c.21-.06.24-.4,0-.41A3.66,3.66,0,0,0-21.23,70a7.5,7.5,0,0,1-3.3,2.15C-24.71,72.19-24.72,72.45-24.54,72.46Z" transform="translate(46.23 -0.02)"/>
            <path class="cls-5" d="M-33.64,64.2A4.1,4.1,0,0,0-31,62.42c.31-.44.57-.92.88-1.37a10.22,10.22,0,0,1,1.4-1.39.18.18,0,0,0,0-.25.19.19,0,0,0-.14,0c-.89.19-1.51,1.22-1.95,1.94a5,5,0,0,1-2.85,2.58C-33.88,63.94-33.84,64.24-33.64,64.2Z" transform="translate(46.23 -0.02)"/>
            <path class="cls-5" d="M-33.87,64.34c2.6.6,4.36-2.22,7-2.05a.21.21,0,0,0,.21-.21.2.2,0,0,0-.12-.19c-2.4-1-4.49,2.42-7,2.14C-34,64-34,64.3-33.87,64.34Z" transform="translate(46.23 -0.02)"/>
            <path class="cls-5" d="M-33.48,52.29A19.83,19.83,0,0,0-29.87,52a.23.23,0,0,0,.19-.27.23.23,0,0,0-.27-.19c-1.18.14-2.35.4-3.54.46C-33.69,52-33.67,52.29-33.48,52.29Z" transform="translate(46.23 -0.02)"/>
            <path class="cls-5" d="M-33.44,52.33a4.41,4.41,0,0,0,1.72-1.76,9.81,9.81,0,0,1,.79-1.12,10.43,10.43,0,0,1,1-.75.18.18,0,0,0,0-.25.24.24,0,0,0-.11-.06c-.71-.16-1.34.72-1.68,1.22A7.28,7.28,0,0,1-33.59,52C-33.78,52.12-33.65,52.43-33.44,52.33Z" transform="translate(46.23 -0.02)"/>
            <path class="cls-5" d="M-10.9,16.68c.39,1.72-1.43,5.65,1.05,6.38.22.07.41-.23.2-.36-2-1.18-.5-4.19-1-6.06C-10.69,16.48-10.94,16.52-10.9,16.68Z" transform="translate(46.23 -0.02)"/>
            <path class="cls-5" d="M-10.82,16.7c-.4,2.48,2.27,3,3,5.07.09.26.53.12.46-.15-.54-2.05-3.38-2.56-3.21-4.9a.14.14,0,0,0-.18-.08A.13.13,0,0,0-10.82,16.7Z" transform="translate(46.23 -0.02)"/>
            <path class="cls-5" d="M-17.73,71.26c3.44-1.35,1.63-6.35,4.45-8.12a.23.23,0,0,0,.07-.32.24.24,0,0,0-.27-.09c-1.22.39-1.6,1.83-1.86,2.94-.47,2-.63,4.19-2.5,5.37a.13.13,0,0,0-.05.17A.12.12,0,0,0-17.73,71.26Z" transform="translate(46.23 -0.02)"/>
            <path class="cls-5" d="M-17.5,71.26a17.74,17.74,0,0,0,2.17-1.33,8.32,8.32,0,0,0,1.21-1.44c.93-1.3,1.61-2.71,3-3.54a.24.24,0,0,0,.11-.31.24.24,0,0,0-.32-.11c-1.25.45-2,1.77-2.69,2.82a13.72,13.72,0,0,1-1.47,2c-.66.69-1.58,1-2.24,1.69a.15.15,0,0,0,0,.22.15.15,0,0,0,.22,0Z" transform="translate(46.23 -0.02)"/>
            <path class="cls-5" d="M-29,55.94c2.95-1,3.68-4.48,6.66-5.2a.23.23,0,0,0,.15-.29.24.24,0,0,0-.22-.16,4.33,4.33,0,0,0-3,1.88c-1.11,1.43-2,2.8-3.75,3.51C-29.32,55.75-29.23,56-29,55.94Z" transform="translate(46.23 -0.02)"/>
            <path class="cls-5" d="M-29.18,56.06c2.75-.48,5.07-2.24,8-1.73a.21.21,0,0,0,.09-.41c-2.59-.93-5.79,1-8.15,1.88A.13.13,0,0,0-29.18,56.06Z" transform="translate(46.23 -0.02)"/>
            <path class="cls-5" d="M-27.68,29a12.63,12.63,0,0,0,3,2.45c1.13.51,2.3.09,3.4.76.14.08.31-.08.2-.21-.68-.79-1.49-.57-2.43-.65-1.69-.15-2.76-1.61-4-2.57C-27.67,28.66-27.81,28.88-27.68,29Z" transform="translate(46.23 -0.02)"/>
            <path class="cls-5" d="M-27.63,29c2,2.09,2.27,5.93,5.61,6.5A.24.24,0,0,0-22,35c-3.11-.51-3.4-4.4-5.47-6.23C-27.56,28.71-27.74,28.91-27.63,29Z" transform="translate(46.23 -0.02)"/>
            <path class="cls-5" d="M-21.49,32a10.35,10.35,0,0,0,1.23.65c.2.08.37-.23.18-.34a9.11,9.11,0,0,0-1.26-.6C-21.5,31.66-21.64,31.92-21.49,32Z" transform="translate(46.23 -0.02)"/>
            <path class="cls-5" d="M7.92,66.77c.29,1.51,1.66,2.36,3,3,1.93.93,3.68,1.5,4.45,3.68.06.18.3.07.29-.09-.09-1.56-1.39-2.5-2.68-3.13-1.91-.94-3.78-1.45-4.76-3.52A.15.15,0,0,0,8,66.59.16.16,0,0,0,7.92,66.77Z" transform="translate(46.23 -0.02)"/>
            <path class="cls-5" d="M15.62,73c.59-3-2.64-5-3-7.86a.17.17,0,0,0-.22-.1.16.16,0,0,0-.1.1c-.34,1,.34,2,.85,2.81,1.07,1.67,2.06,3,2.15,5.09C15.32,73.17,15.59,73.13,15.62,73Z" transform="translate(46.23 -0.02)"/>
            <path class="cls-5" d="M29.17,57a22.15,22.15,0,0,0-4.23-2.08c-.83-.29-2.16-.75-2.82.08-.15.18.12.39.29.27,1-.71,2.65.16,3.59.57s2,1,3,1.41C29.19,57.32,29.31,57.09,29.17,57Z" transform="translate(46.23 -0.02)"/>
            <path class="cls-5" d="M23.46,52.3C25.14,52.46,26,54,27,55.17c.62.8,1.54,2.12,2.69,2.12a.17.17,0,0,0,.14-.2.14.14,0,0,0-.05-.09A9,9,0,0,1,28,55.6c-.56-.63-1-1.33-1.58-2-.75-.91-1.7-1.85-3-1.67a.19.19,0,0,0-.15.22A.18.18,0,0,0,23.46,52.3Z" transform="translate(46.23 -0.02)"/>
            <path class="cls-5" d="M-1.57,66.69c8.42,1.59,17.63-3.74,22-10.88a.15.15,0,0,0-.25-.17c-5,6.7-12.91,12.22-21.7,10.76A.15.15,0,1,0-1.57,66.69Z" transform="translate(46.23 -0.02)"/>
            <path class="cls-5" d="M21.19,53.6a17.23,17.23,0,0,0,2-11.53.16.16,0,0,0-.32,0c-.22,4.18.15,7.52-2,11.36C20.88,53.6,21.1,53.76,21.19,53.6Z" transform="translate(46.23 -0.02)"/>
            <path class="cls-5" d="M-21.06,41.11c1-6.43,4.31-10.11,8.83-14.51a.16.16,0,0,0,0-.23.16.16,0,0,0-.23,0h0a20.73,20.73,0,0,0-8.89,14.74C-21.35,41.26-21.09,41.28-21.06,41.11Z" transform="translate(46.23 -0.02)"/>
            <path class="cls-5" d="M-21.12,47.53c.62,4.52,2.29,10.6,6.65,12.93a.16.16,0,0,0,.22-.07.17.17,0,0,0,0-.19c-4-3.15-5.73-7.84-6.57-12.71a.13.13,0,0,0-.15-.11A.13.13,0,0,0-21.12,47.53Z" transform="translate(46.23 -0.02)"/>
            <path class="cls-5" d="M6.21,23.59A24.55,24.55,0,0,1,18.15,32a.16.16,0,0,0,.27-.18c-2.36-4.33-7.57-7-12.12-8.46a.14.14,0,0,0-.14.12A.16.16,0,0,0,6.21,23.59Z" transform="translate(46.23 -0.02)"/>
            <path class="cls-5" d="M19.77,34.16a4.28,4.28,0,0,0,1,1.45c.12.1.28-.09.18-.21A12.07,12.07,0,0,1,20,34C19.92,33.82,19.62,34,19.77,34.16Z" transform="translate(46.23 -0.02)"/>
            <path class="cls-5" d="M8.77,26.61A19.56,19.56,0,0,1,18.9,35.55a.15.15,0,0,0,.21,0,.14.14,0,0,0,.06-.16c-1.54-3.95-6.24-8-10.3-9.09C8.77,26.29,8.63,26.55,8.77,26.61Z" transform="translate(46.23 -0.02)"/>
            <path class="cls-5" d="M5.27,65.05a12.32,12.32,0,0,0,6.92-3.63c.12-.14-.09-.31-.23-.21A26.25,26.25,0,0,1,5.2,64.84a.11.11,0,0,0,.07.21Z" transform="translate(46.23 -0.02)"/>
            <path class="cls-5" d="M14.17,60.25c3.8-3.84,7.54-8.21,7-14,0-.17-.28-.15-.29,0a16.21,16.21,0,0,1-2.35,8.07A56.07,56.07,0,0,1,13.94,60C13.83,60.18,14,60.38,14.17,60.25Z" transform="translate(46.23 -0.02)"/>
            <path class="cls-5" d="M6.92,62.27a18.71,18.71,0,0,0,10.69-10.9c0-.15-.17-.28-.26-.14C14.6,56,12,59.73,6.77,62,6.61,62.08,6.77,62.34,6.92,62.27Z" transform="translate(46.23 -0.02)"/>
            <path class="cls-5" d="M11.17,57.25A8.06,8.06,0,0,0,13,55.61c.11-.14-.08-.3-.21-.2-.63.5-1.16,1.12-1.82,1.59C10.77,57.12,11,57.37,11.17,57.25Z" transform="translate(46.23 -0.02)"/>
            <path class="cls-5" d="M14.77,53.21A14.53,14.53,0,0,0,16,51a.15.15,0,0,0-.09-.19.16.16,0,0,0-.17,0,14.73,14.73,0,0,0-1.24,2.23C14.44,53.23,14.71,53.38,14.77,53.21Z" transform="translate(46.23 -0.02)"/>
            <path class="cls-5" d="M18,49.77a8.13,8.13,0,0,0,.79-3.69c0-.18-.27-.15-.3,0a27.35,27.35,0,0,1-.81,3.56.19.19,0,0,0,.1.23A.17.17,0,0,0,18,49.77Z" transform="translate(46.23 -0.02)"/>
            <path class="cls-5" d="M-17.9,53.57A18.4,18.4,0,0,0-6.42,62.88a.15.15,0,0,0,.18-.12.15.15,0,0,0-.08-.16c-4.75-2-8.88-4.43-11.35-9.13C-17.75,53.32-18,53.43-17.9,53.57Z" transform="translate(46.23 -0.02)"/>
            <path class="cls-5" d="M-16.12,53a3.5,3.5,0,0,0,.89,1.23c.11.1.27-.08.18-.19a10.52,10.52,0,0,1-.77-1.19.16.16,0,0,0-.22-.07.16.16,0,0,0-.08.22Z" transform="translate(46.23 -0.02)"/>
            <path class="cls-5" d="M-14.09,56c2.53,2.72,6.22,5.61,10.11,5.67a.16.16,0,0,0,.12-.19A.16.16,0,0,0-4,61.36a18.11,18.11,0,0,1-9.92-5.55C-14,55.69-14.23,55.88-14.09,56Z" transform="translate(46.23 -0.02)"/>
            <path class="cls-5" d="M-13.67,54a15.5,15.5,0,0,0,9.49,5.26A.13.13,0,0,0-4,59.14.12.12,0,0,0-4.12,59c-3.6-1-6.83-2.27-9.37-5.17C-13.59,53.72-13.77,53.88-13.67,54Z" transform="translate(46.23 -0.02)"/>
            <path class="cls-5" d="M-10.09,54.82a5,5,0,0,0,1.47,1,.13.13,0,0,0,.17-.1.13.13,0,0,0,0-.14,8.89,8.89,0,0,1-1.37-1C-10,54.5-10.23,54.69-10.09,54.82Z" transform="translate(46.23 -0.02)"/>
            <path class="cls-5" d="M-1.62,62.29a6.63,6.63,0,0,0,4.33-.23c.15-.06.07-.29-.09-.27A11,11,0,0,1-1.54,62C-1.73,61.92-1.8,62.24-1.62,62.29Z" transform="translate(46.23 -0.02)"/>
            <path class="cls-5" d="M-2.58,64.3A23,23,0,0,0,3,64.66a.12.12,0,1,0,0-.24A37.37,37.37,0,0,1-2.55,64C-2.75,63.94-2.78,64.26-2.58,64.3Z" transform="translate(46.23 -0.02)"/>
            <path class="cls-5" d="M.23,60.07c2.88.19,6.51-.18,8.73-2.22a.17.17,0,0,0,0-.23.17.17,0,0,0-.21,0A13,13,0,0,1,.26,59.79C.08,59.78.05,60.06.23,60.07Z" transform="translate(46.23 -0.02)"/>
            <path class="cls-5" d="M.83,57.49a11.22,11.22,0,0,0,1.64,0,.14.14,0,0,0,.1-.17.13.13,0,0,0-.1-.1,14.23,14.23,0,0,0-1.6,0A.14.14,0,1,0,.83,57.49Z" transform="translate(46.23 -0.02)"/>
            <path class="cls-5" d="M4.71,57.46a15.62,15.62,0,0,0,3.41-1.41.13.13,0,0,0,0-.19A.13.13,0,0,0,8,55.8c-1.15.44-2.25,1-3.41,1.4C4.41,57.26,4.54,57.51,4.71,57.46Z" transform="translate(46.23 -0.02)"/>
            <path class="cls-5" d="M-9.06,24.81a11.22,11.22,0,0,1,2-1c.16-.06.07-.29-.08-.27a5.17,5.17,0,0,0-2.1,1C-9.48,24.67-9.23,24.93-9.06,24.81Z" transform="translate(46.23 -0.02)"/>
            <path class="cls-5" d="M-5.1,23A9.11,9.11,0,0,1,0,22.4a.13.13,0,0,0,.17-.11.14.14,0,0,0-.11-.17,6.89,6.89,0,0,0-5.33.59C-5.42,22.82-5.23,23.11-5.1,23Z" transform="translate(46.23 -0.02)"/>
            <path class="cls-5" d="M-13.88,30.76c2.38-3.43,6.69-5.24,10.75-5.53.18,0,.17-.32,0-.32a13.76,13.76,0,0,0-10.94,5.7A.12.12,0,1,0-13.88,30.76Z" transform="translate(46.23 -0.02)"/>
            <path class="cls-5" d="M-1,24.43a14.12,14.12,0,0,0,1.84,0c.15,0,.13-.24,0-.26a13.51,13.51,0,0,0-1.8,0A.13.13,0,1,0-1,24.43Z" transform="translate(46.23 -0.02)"/>
            <path class="cls-5" d="M-15.46,32.12a2.58,2.58,0,0,0-1.29,2c0,.15.21.27.3.11s.26-.66.45-1a3.66,3.66,0,0,1,.74-.78C-15.1,32.3-15.23,32-15.46,32.12Z" transform="translate(46.23 -0.02)"/>
            <path class="cls-5" d="M-7.23,31.21a5.6,5.6,0,0,1,3.12-1.39A.14.14,0,0,0-4,29.68a.14.14,0,0,0-.14-.14A4.38,4.38,0,0,0-7.48,31C-7.63,31.1-7.42,31.36-7.23,31.21Z" transform="translate(46.23 -0.02)"/>
            <path class="cls-6" d="M29.83,72.8c.83,0,1-1.3.12-1.3S29,72.8,29.83,72.8Z" transform="translate(46.23 -0.02)"/>
            <path class="cls-6" d="M32.64,67.4H33a.65.65,0,0,0,.53-.75.66.66,0,0,0-.53-.53h-.17C31.9,66.05,31.77,67.43,32.64,67.4Z" transform="translate(46.23 -0.02)"/>
            <path class="cls-6" d="M13.3,84.08l-.07.09a.54.54,0,0,0,0,.64l.08.11c.39.54,1.23.12,1.21-.48a.69.69,0,0,0-.76-.61A.71.71,0,0,0,13.3,84.08Z" transform="translate(46.23 -0.02)"/>
            <path class="cls-6" d="M-21.23,82.05c.75,0,.86-1.17.11-1.17S-22,82.05-21.23,82.05Z" transform="translate(46.23 -0.02)"/>
            <path class="cls-5" d="M-27.56,79.35c.75,0,.87-1.17.11-1.17S-28.32,79.35-27.56,79.35Z" transform="translate(46.23 -0.02)"/>
            <path class="cls-6" d="M-15.55,79.8c.94,0,1.09-1.47.14-1.47S-16.5,79.8-15.55,79.8Z" transform="translate(46.23 -0.02)"/>
            <path class="cls-5" d="M5.77,2.27c.82,0,1-1.27.12-1.27S5,2.27,5.77,2.27Z" transform="translate(46.23 -0.02)"/>
            <path class="cls-6" d="M12.23,1.83a2.44,2.44,0,0,0-.46-.14l.82,1.78a1.46,1.46,0,0,0,.18-.67,1,1,0,0,0-.66-1,1.24,1.24,0,0,0-1,0,1.15,1.15,0,0,0-.47,1.56,1.27,1.27,0,0,0,.13.19,1.29,1.29,0,0,0,1.56.25,1.08,1.08,0,0,0-.1-2Z" transform="translate(46.23 -0.02)"/>
            <path class="cls-6" d="M34.93,14.89h.14c.61-.17.87-1.15.13-1.36l-.33-.08C33.83,13.25,33.77,15.05,34.93,14.89Z" transform="translate(46.23 -0.02)"/>
            <path class="cls-6" d="M25.33,5.72c.75,0,.86-1.16.11-1.16S24.58,5.72,25.33,5.72Z" transform="translate(46.23 -0.02)"/>
            <path class="cls-6" d="M21.11,7.93c.88,0,1-1.37.13-1.37S20.23,7.93,21.11,7.93Z" transform="translate(46.23 -0.02)"/>
            <path class="cls-6" d="M30.58,14.19H30.5c-1.22-.26-1.27,2,.07,1.76h.07a.88.88,0,1,0-.06-1.76Z" transform="translate(46.23 -0.02)"/>
            <path class="cls-6" d="M-40.56,27.79h-.08c-.67.17-1,1.31-.13,1.52h.07C-39.29,29.69-39.4,27.49-40.56,27.79Z" transform="translate(46.23 -0.02)"/>
            <path class="cls-6" d="M40,21.08c1,0,1.21-1.63.16-1.63S39,21.08,40,21.08Z" transform="translate(46.23 -0.02)"/>
            <path class="cls-6" d="M45.43,26c1.22,0,1.41-1.9.18-1.9S44.2,26,45.43,26Z" transform="translate(46.23 -0.02)"/>
            <path class="cls-6" d="M-41.45,20.31l.12-.1a.47.47,0,0,0,.08-.65l-.08-.07-.13-.11a.6.6,0,0,0-.83.1.59.59,0,0,0,.11.83.57.57,0,0,0,.72,0Z" transform="translate(46.23 -0.02)"/>
            <path class="cls-6" d="M-36.08,65.59c.83,0,1-1.3.12-1.3S-36.92,65.59-36.08,65.59Z" transform="translate(46.23 -0.02)"/>
            <path class="cls-6" d="M-45,45.07a1.36,1.36,0,0,0,1.43-1.19,1.32,1.32,0,0,0-1.19-1.42,1.36,1.36,0,0,0-1.43,1.18A1.33,1.33,0,0,0-45,45.07Z" transform="translate(46.23 -0.02)"/>
            <path class="cls-5" d="M22.63,78.07c.66,0,.76-1,.1-1S22,78.07,22.63,78.07Z" transform="translate(46.23 -0.02)"/>
            <path class="cls-7" d="M35.06,70.32a1.3,1.3,0,0,0-.48-.07c-.8,0-.73,1.37,0,1.4a1.56,1.56,0,0,0,.48-.08.63.63,0,0,0,.55-.7A.64.64,0,0,0,35.06,70.32Z" transform="translate(46.23 -0.02)"/>
            <path class="cls-5" d="M41.87,56.69c.6,0,.69-.93.09-.93S41.27,56.69,41.87,56.69Z" transform="translate(46.23 -0.02)"/>
            <path class="cls-5" d="M40.07,38.9c.52,0,.6-.81.08-.81S39.55,38.9,40.07,38.9Z" transform="translate(46.23 -0.02)"/>
            <path class="cls-5" d="M-33.57,17.15c.76,0,.88-1.18.11-1.18S-34.34,17.15-33.57,17.15Z" transform="translate(46.23 -0.02)"/>
            <path class="cls-6" d="M-29.67,74c.85,0,1-1.33.13-1.33S-30.53,74-29.67,74Z" transform="translate(46.23 -0.02)"/>
            <path class="cls-6" d="M23.88,81.57c1,0,1.09-1.47.14-1.47S22.93,81.57,23.88,81.57Z" transform="translate(46.23 -0.02)"/>
            <path class="cls-5" d="M27.93,76.71c1.26,0,1.45-1.95.19-1.95S26.67,76.71,27.93,76.71Z" transform="translate(46.23 -0.02)"/>
          </g>
        </g>
      </g>
    </g>
  </g>
</svg>